<svg xmlns="http://www.w3.org/2000/svg" viewBox="0 0 370.286 75.109"><title>SG_Logo</title><path d="M81.76,14.351C76.2,5.034,63.515,10.34,66.232,21.08c3.623,14.493,21.222,17.987,27.692,30.8C97.548,59,95.218,65.983,89.783,69.089s-15.01,4.4-20.833.129c-2.847-2.2-2.718-3.752-4.141.259-.518,1.294-1.294,2.717-2.977,1.294S59.374,61.842,63.644,59s4.529-.647,6.988,1.812c6.082,5.047,13.846,3.494,15.787-.647s0-6.858-2.588-9.7S74.255,42.69,69.338,37,58.08,21.339,61.315,13.057,72.055-.789,81.5,4c5.564,2.847,11,9.187,7.893,15.658-2.2,4.4-8.8,5.823-11.9,1.294S83.313,16.939,81.76,14.351Z" transform="translate(-0.297 -0.32)"/><path d="M106.347,29.491c.259,7.894-8.8,7.376-9.058-.258a4.042,4.042,0,0,1,3.753-4.271h.776a5.754,5.754,0,0,1,2.847,1.294,4.319,4.319,0,0,1,1.553,3.235Z" transform="translate(-0.297 -0.32)"/><path d="M97.936,47.22l-.388.258c-3.882,2.2-2.718-2.2-.647-4.788s3.882-3.623,5.435-3.364a3.332,3.332,0,0,1,2.846,2.329c1.036,5.047-4.658,19.152,1.424,22.905a2.616,2.616,0,0,0,3.494-.518c1.164-1.294,1.294-3.494,2.717-3.882s1.165.129,1.424,1.812c.388,5.046-1.812,12.293-8.8,9.834s-5.952-14.752-5.823-21.222c0-.388-.129-4.27-1.682-3.364Z" transform="translate(-0.297 -0.32)"/><path d="M142.58,38.42a3.069,3.069,0,0,0-2.976-2.07l-7.247.388-8.152.388L125.5,25.48c1.164-11.258,1.294-18.246.129-20.834s-2.458-3.365-3.882-2.329c-2.847.517-3.623,5.564-3.882,14.881,0,6.988.259,13.846.906,20.834L114.629,39.2a15.046,15.046,0,0,0-3.365,1.294,1.3,1.3,0,0,0-.647,1.423,5.891,5.891,0,0,0,.647,2.588l5.177,11.9,4.788,10.87c1.423,3.235,3.235,4.917,5.564,4.788s3.364-.388,3.235-.776a16.129,16.129,0,0,1-.518-3.235,56.793,56.793,0,0,1-4.141-13.588,101.914,101.914,0,0,1-.517-10.87c7.117-1.682,11.905-1.164,16.046-2.329h.259c1.553-1.035.647-.518,1.294-1.035A1.258,1.258,0,0,0,142.58,38.42Zm-21.351,22-.259.259h-.388l-.518-1.165c-.388-.906-2.071-6.6-2.071-6.6s-1.423-5.3-1.682-5.823a1.109,1.109,0,0,1,0-.906,2.729,2.729,0,0,1,.518-.776,4,4,0,0,1,1.682-.776h.388l.259.388v1.164l.388,2.718,1.294,8.023.389,2.976Z" transform="translate(-0.297 -0.32)"/><path d="M167.3,63.266c-4.4,5.435-10.611,10.481-17.469,8.54-4.012-1.423-6.6-5.3-7.894-10.093a31.13,31.13,0,0,1-.259-14.235c1.553-7.246,5.953-13.2,11-13.2,9.575.906,14.493,11.517,9.575,19.023-2.717,4.14-8.411,6.211-11.128,7.634s-1.812.777-1.682,2.718c.388,4.788,8.54,4.788,13.716-5.953.518-1.035,3.753-5.176,5.823-4.011C173.378,56.407,167.814,62.619,167.3,63.266Zm-20.057-6.6c5.693-1.812,10.481-6.858,10.87-9.576.776-5.176-7.118-9.576-9.965-1.164-.776,2.2-.905,6.858-.905,10.611Z" transform="translate(-0.297 -0.32)"/><path d="M205.858,44.373c-.388,4.27,6.082,26.657,1.424,27.045s-4.529.518-5.176-1.035,2.07-12.941-.259-9.447c-.518.777-.388.906-1.294,2.33-7.635,13.716-18.117,10.093-24.2-1.036A45.712,45.712,0,0,1,171.7,36.091c1.682-15.917,8.541-36.88,24.587-33.516,12.681,2.718,3.882,19.67-.518,15.27-10.482-22.9-31.316,32.48-8.282,45.809,6.729,3.882,12.423-8.67,11-14.235s-1.164-4.011-3.1-3.493-6.6,4.917-8.153,3.493-2.717-8.281.777-8.411,6.6,1.165,11.517-4.788,8.152-3.752,7.376,2.071c-.389,2.588-1.036,4.011-1.294,5.952Z" transform="translate(-0.297 -0.32)"/><path d="M235.492,36.091a21.1,21.1,0,0,0-13.2-3.882c-6.988.776-13.588,5.435-12.811,12.811.259,3.1.647,16.563,1.811,22.128a5.074,5.074,0,0,0,3.365,4.141,3.9,3.9,0,0,0,4.788-2.071c1.164-2.717-.13-5.176-.777-7.505a99.6,99.6,0,0,1-2.329-15.14c-.776-8.282,11.776-9.317,14.623-4.53-2.071,3.236.906,5.306,4.788,2.33s2.07-6.47-.389-8.412Z" transform="translate(-0.297 -0.32)"/><path d="M252.573,72.194c17.34-2.976,23.94-29.762,2.459-38.95C232.645,26,231.61,76.594,252.573,72.194ZM244.68,50.455c2.07-21.093,15.916-11.258,17.728,2.458S241.7,74.783,244.68,50.455Z" transform="translate(-0.297 -0.32)"/><path d="M277.548,44.5c-2.717,5.953-1.682,30.022,10.741,18.634,2.717-2.458,3.105-10.481,2.07-17.34a76.157,76.157,0,0,0-2.07-7.764c-.518-1.423.905-4.4,3.235-5.176a4.117,4.117,0,0,1,4.788,2.329c1.294,3.106.388,8.152.258,10.223-.388,6.211-1.423,13.717.777,17.728.906,1.682,2.2,1.941,2.329,3.106.13,4.529-5.305,7.5-7.247,4.658-.517-.776-.129-1.941-.9-2.588C281.3,77.5,270.043,70.253,270.3,57.184c0-2.847-.388-7.506.648-11.647s1.294-6.211,2.976-7.893,3.235-.647,4.011-.13.388,4.788-.388,6.988Z" transform="translate(-0.297 -0.32)"/><path d="M323.228,64.948c1.811-6.211,4.011-16.3,2.588-20.058s-9.835-7.634-13.588-1.941c-2.329,3.494-2.458,16.046.518,23.422.776,1.812-.647,4.271-2.847,4.918-8.541,2.847-1.941-20.834-6.858-28.469-1.036-1.682-2.33-1.812-2.588-2.976-.518-4.4,4.658-7.118,6.987-4.4.647.776.259,1.941,1.165,2.459,9.446-8.8,23.551-2.2,24.457,10.352A50.658,50.658,0,0,1,329.7,67.407a11.951,11.951,0,0,1-2.33,3.882,2.982,2.982,0,0,1-4.011.129c-1.553-1.035-.776-4.529-.129-6.47Z" transform="translate(-0.297 -0.32)"/><path d="M360.884,37.514c.776-6.729-2.07-26.527-7.247-27.045-1.423-.129-1.682-3.494-.776-5.564s3.235-2.718,6.988-1.165c5.952,2.459,6.47,25.1,6.6,31.833s-.258,14.623.777,20.834a22.171,22.171,0,0,0,1.682,5.694c1.035,2.459,2.2,4.141,1.423,5.564s-6.211,4.271-7.764,2.718-1.553-2.976-1.811-5.176c-8.929,14.234-23.293,3.105-25.234-10.741s10.093-28.727,25.363-17.21ZM346.779,63.783c11.258,8.153,14.881-12.94,9.188-20.834S331.639,52.008,346.779,63.783Z" transform="translate(-0.297 -0.32)"/><path d="M39.834,19.786c6.987-2.459,9.576-10.352,9.317-15.917C22.882-8.553-3.516,13.7.754,38.55,2.307,47.478,8.518,56.019,17.317,59c-.647.647-1.811,2.33-2.329,2.977,8.411,1.811,14.493,1.552,19.8-.389a25.721,25.721,0,0,0,10.87-7.5A22.822,22.822,0,0,0,50.7,44.5c.129-.388-.777-1.294.647-.647s-.389,6.082-.906,7.376a27.048,27.048,0,0,1-2.588,4.659,30.593,30.593,0,0,1-10.741,9.576c-6.6,3.623-17.987,4.529-25.1.905S1.271,68.959,8,72.453C44.88,87.464,75.031,41.914,39.834,19.786Zm5.435,29.375C37.5,61.842,22.105,59,13.565,50.325S5.93,29.362,12.271,20.692A36.956,36.956,0,0,1,41.645,6.069,15.8,15.8,0,0,1,41.9,8.528a11.992,11.992,0,0,1-3.882,9.705l-2.07,1.812C45.916,26.256,51.092,39.714,45.269,49.161Z" transform="translate(-0.297 -0.32)" fill="#96cb4c"/><path d="M11.753,34.02c1.941-18.892,23.681-22.645,31.7,2.589S8.777,56.8,11.753,34.02ZM29.481,46.443c17.211.647,8.929-16.952-2.329-20.834S9.683,46.443,29.481,46.443Z" transform="translate(-0.297 -0.32)"/></svg>