<svg viewBox="0 0 116.8 19.3" xmlns="http://www.w3.org/2000/svg"><g fill="#3776b9"><path d="m0 0h5.3v5.3h-5.3zm6.8 0h5.3v5.3h-5.3zm6.9 0h5.3v5.3h-5.3zm-13.7 6.8h5.3v5.3h-5.3zm6.8 0h5.3v5.3h-5.3zm6.9 0h5.3v5.3h-5.3zm-13.7 6.9h5.3v5.3h-5.3zm6.8 0h5.3v5.3h-5.3z"/><path d="m13.7 13.7h5.3v5.3h-5.3z"/><path d="m29.8 8.2c1.1-1 2.5-1.5 4-1.5 2.7 0 5.3 1.8 5.3 6.3s-2.9 6.3-6.1 6.3c-1.6 0-3.2-.4-4.6-1.3v-18h1.4zm0 9.1c1 .5 2.1.8 3.2.8 2.5 0 4.8-1.5 4.8-5.1 0-3.2-1.8-5.1-4.1-5.1-1.5.1-2.9.8-3.9 1.9zm11.7 1.7v-19h1.3v19zm5.8-4.7c0 2.9 1.4 3.7 2.8 3.7 1.8-.1 3.3-1.1 4.2-2.7v-8.4h1.4v12.2h-1.4v-2.4c-1 1.5-2.8 2.5-4.6 2.5-1.9 0-3.8-1.1-3.8-4.8v-7.5h1.4zm21.4 3.9c-1.3.7-2.8 1.1-4.3 1-4.1-.1-6.2-3.4-6.1-6.8 0-3.2 2.5-5.8 5.6-5.8h.4c3.3.1 5.5 2.7 5.1 6.6h-9.8c0 2.6 2.1 4.7 4.7 4.8h.1c1.3 0 2.6-.3 3.8-.9zm-.5-6.1c.1-2.2-1.6-4.1-3.8-4.2h-.2c-2.4-.1-4.4 1.8-4.5 4.2zm5.6-2.9c1-1.6 2.6-2.5 4.5-2.6 2.4 0 3.9 1.8 3.9 4.6v7.8h-1.3v-7.6c0-2.6-1.4-3.6-2.8-3.6-1.8.2-3.3 1.2-4.2 2.7v8.5h-1.3v-19h1.4c-.2 0-.2 9.2-.2 9.2zm22.3 3.7c0 4-2.7 6.3-5.9 6.3-3.5 0-5.9-2.8-5.9-6.3-.2-3.3 2.3-6.1 5.6-6.3h.3c3.2.1 5.9 2.4 5.9 6.3zm-10.3 0c0 2.7 1.6 5 4.5 5s4.5-2.4 4.5-5-1.7-5-4.5-5-4.5 2.3-4.5 5zm13.4 4c1 .6 2.1 1 3.2 1 1.3 0 2.9-.5 2.8-1.8 0-1.1-1.2-2-3-2.7-2.1-.8-3.9-1.6-3.9-3.5s1.8-3.3 4.2-3.3c1.2 0 2.3.3 3.4.9l-.5 1.1c-.9-.5-1.8-.7-2.8-.7-2 0-2.9 1-2.9 2 0 1.3 1.5 1.8 3.4 2.6 2.9 1.1 3.6 2.5 3.6 3.6 0 1.9-1.8 3.1-4.2 3.1-1.4 0-2.7-.4-3.9-1.1zm16.4-10v1.1h-4v6.7c0 2 .8 3.2 2.6 3.3.8 0 1.6-.1 2.3-.5l.4 1.2c-.9.3-1.8.5-2.7.5-2.2 0-3.9-1.3-3.9-4.5v-6.7h-2.3v-1.1h2.2v-4.1h1.4v4.1z"/></g></svg>