<svg width="565" height="565" xmlns="http://www.w3.org/2000/svg">
	<defs>
		<clipPath id="clipPath18" clipPathUnits="userSpaceOnUse">
			<path id="path16" d="m0,2000l2000,0l0,-2000l-2000,0l0,2000z" />
		</clipPath>
	</defs>
	<g>
		<rect x="-1" y="-1" width="567" height="567" id="canvas_background" fill="none" />
	</g>
	<g>
		<ellipse stroke="#000" ry="275.999998" rx="277.499978" id="svg_1" cy="280.5" cx="281.500002" stroke-width="1.5" fill="#fff" />
		<g id="svg_2">
			<g id="g20" transform="matrix(1.3333333,0,0,-1.3333333,0,2666.6667)">
				<path id="path22" d="m32.30899,1789.85734c0,-70.736 41.104,-131.874 100.723,-160.836l-85.248,233.567c-9.916,-22.225 -15.475,-46.82 -15.475,-72.731" fill-rule="nonzero" fill="#00759b" />
			</g>
			<g id="g24" transform="matrix(1.3333333,0,0,-1.3333333,0,2666.6667)">
				<path id="path26" d="m331.66207,1798.87052c0,22.094 -7.937,37.385 -14.734,49.287c-9.057,14.728 -17.555,27.188 -17.555,41.916c0,16.424 12.456,31.717 30.011,31.717c0.793,0 1.545,-0.096 2.315,-0.144c-31.794,29.132 -74.156,46.921 -120.68,46.921c-62.437,0 -117.362,-32.037 -149.318,-80.55c4.197,-0.134 8.149,-0.216 11.502,-0.216c18.688,0 47.63,2.272 47.63,2.272c9.629,0.564 10.767,-13.589 1.143,-14.728c0,0 -9.685,-1.133 -20.452,-1.699l65.076,-193.581l39.114,117.293l-27.842,76.288c-9.628,0.566 -18.744,1.699 -18.744,1.699c-9.633,0.569 -8.503,15.292 1.134,14.728c0,0 29.507,-2.272 47.067,-2.272c18.686,0 47.632,2.272 47.632,2.272c9.634,0.564 10.77,-13.589 1.14,-14.728c0,0 -9.695,-1.133 -20.452,-1.699l64.585,-192.106l17.83,59.557c7.715,24.73 13.598,42.479 13.598,57.773" fill-rule="nonzero" fill="#00759b" />
			</g>
			<g id="g28" transform="matrix(1.3333333,0,0,-1.3333333,0,2666.6667)">
				<path id="path30" d="m214.15615,1774.22453l-53.625,-155.809c16.014,-4.71 32.946,-7.281 50.488,-7.281c20.811,0 40.771,3.592 59.346,10.131c-0.475,0.765 -0.918,1.579 -1.28,2.462l-54.929,150.497z" fill-rule="nonzero" fill="#00759b" />
			</g>
			<g id="g32" transform="matrix(1.3333333,0,0,-1.3333333,0,2666.6667)">
				<path id="path34" d="m367.83877,1875.59269c0.769,-5.692 1.202,-11.798 1.202,-18.377c0,-18.127 -3.396,-38.514 -13.59,-64.009l-54.584,-157.82c53.13,30.978 88.861,88.539 88.861,154.471c0,31.071 -7.939,60.281 -21.889,85.735" fill-rule="nonzero" fill="#00759b" />
			</g>
			<g id="g36" transform="matrix(1.3333333,0,0,-1.3333333,0,2666.6667)">
				<path id="path38" d="m211.01895,1591.07762c-109.602,0 -198.771,89.175 -198.771,198.78c0,109.6 89.169,198.766 198.771,198.766c109.6,0 198.773,-89.166 198.773,-198.766c0,-109.605 -89.173,-198.78 -198.773,-198.78m0,407.099c-114.873,0 -208.324,-93.45 -208.324,-208.319c0,-114.878 93.451,-208.332 208.324,-208.332c114.871,0 208.329,93.454 208.329,208.332c0,114.869 -93.458,208.319 -208.329,208.319" fill-rule="nonzero" fill="#00759b" />
			</g>
		</g>
	</g>
</svg>
