<svg xmlns="http://www.w3.org/2000/svg" xmlns:xlink="http://www.w3.org/1999/xlink" version="1.1" id="Layer_1" x="0px" y="0px" width="392.9px" height="750.8px" viewBox="0 0 392.9 750.8" enable-background="new 0 0 392.9 750.8" xml:space="preserve">
<g>
	<g>
		<path fill-rule="evenodd" clip-rule="evenodd" fill="#344255" d="M87 745.8c-45.2 0-82-36.7-82-81.8V86.8C5 41.7 41.8 5 87 5 h218.9c45.2 0 82 36.7 82 81.8V664c0 45.1-36.8 81.8-82 81.8H87z"/>
		<path fill="#496181" d="M305.9 10c42.5 0 77 34.4 77 76.8V664c0 42.4-34.5 76.8-77 76.8H87c-42.5 0-77-34.4-77-76.8V86.8 C10 44.4 44.5 10 87 10H305.9 M305.9 0H87C39 0 0 39 0 86.8V664c0 47.9 39 86.8 87 86.8h218.9c48 0 87-39 87-86.8V86.8 C392.9 39 353.8 0 305.9 0L305.9 0z"/>
	</g>
	<path fill-rule="evenodd" clip-rule="evenodd" fill="#496181" d="M310.2 40.6c5.2 0 9.5 4.3 9.5 9.5s-4.3 9.5-9.5 9.5 c-5.2 0-9.5-4.3-9.5-9.5S304.9 40.6 310.2 40.6z"/>
	<path fill-rule="evenodd" clip-rule="evenodd" fill="#496181" d="M161.4 32.2h71.8c2.4 0 4.3 1.9 4.3 4.3c0 2.4-1.9 4.3-4.3 4.3 h-71.8c-2.4 0-4.3-1.9-4.3-4.3C157.1 34.1 159 32.2 161.4 32.2z"/>
	<path fill-rule="evenodd" clip-rule="evenodd" fill="#D3DEE6" d="M30.4 74.9h332v584h-332V74.9z"/>
	<path fill-rule="evenodd" clip-rule="evenodd" fill="#496181" d="M165.6 698.1h61.6c6.7-0.1 13.3-0.6 12.9 6.5 c-0.4 6.6-6.3 17.4-12.9 17.4h-61.6c-6.6 0-12.9-10.8-12.9-17.4S159 698.1 165.6 698.1z"/>
	<path fill-rule="evenodd" clip-rule="evenodd" fill="#496181" d="M272.5 42.4c3.3 0 6 2.7 6 6c0 3.3-2.7 6-6 6c-3.3 0-6-2.7-6-6 C266.5 45.1 269.2 42.4 272.5 42.4z"/>
	<path fill-rule="evenodd" clip-rule="evenodd" fill="#496181" d="M255.4 42.4c3.3 0 6 2.7 6 6c0 3.3-2.7 6-6 6c-3.3 0-6-2.7-6-6 C249.4 45.1 252.1 42.4 255.4 42.4z"/>
	<path fill-rule="evenodd" clip-rule="evenodd" fill="#496181" d="M84.4 42.4c3.3 0 6 2.7 6 6c0 3.3-2.7 6-6 6c-3.3 0-6-2.7-6-6 C78.4 45.1 81.1 42.4 84.4 42.4z"/>
</g>
</svg>
