<?xml version="1.0" encoding="utf-8"?>
<!-- Generator: Adobe Illustrator 18.0.0, SVG Export Plug-In . SVG Version: 6.00 Build 0)  -->
<!DOCTYPE svg PUBLIC "-//W3C//DTD SVG 1.1//EN" "http://www.w3.org/Graphics/SVG/1.1/DTD/svg11.dtd">
<svg version="1.1" id="Layer_1" xmlns="http://www.w3.org/2000/svg" xmlns:xlink="http://www.w3.org/1999/xlink" x="0px" y="0px"
	 viewBox="0 0 332 446" enable-background="new 0 0 332 446" xml:space="preserve">
<path fill="#314156" d="M326.8,446V70.5c0-36-29.3-65.2-65.3-65.2H70.4C34.4,5.2,5.2,34.5,5.2,70.5V446H326.8z"/>
<path fill="#475F80" d="M166,47c5,0,9.2-4.1,9.2-9.2c0-5-4.1-9.2-9.2-9.2c-5.1,0-9.2,4.1-9.2,9.2S160.9,47,166,47z"/>
<path fill="#475F80" d="M193.4,65.4h-54.9c-5.1,0-9.2,4.1-9.2,9.2s4.1,9.2,9.2,9.2h54.9c5,0,9.2-4.1,9.2-9.2
	C202.6,69.5,198.5,65.4,193.4,65.4z"/>
<rect x="29.3" y="101.7" fill="#D1DDE5" width="274" height="344.3"/>
<path fill="#475F80" d="M10.4,446V70.5c0-33,27-60,60-60h191.2c33,0,60,27,60,60V446H332V70.5C332,31.6,300.4,0,261.5,0H70.4
	C31.6,0,0,31.6,0,70.5V446H10.4z"/>
<path fill="#FFFFFF" d="M166.3,178.3c-37.1,0-67.3,30.2-67.3,67.3c0,37.1,30.2,67.3,67.3,67.3c37.1,0,67.3-30.2,67.3-67.3
	C233.6,208.5,203.4,178.3,166.3,178.3z M105.8,245.6c0-8.8,1.9-17.1,5.2-24.6l28.9,79.1C119.7,290.3,105.8,269.6,105.8,245.6z
	 M166.3,306.1c-5.9,0-11.7-0.9-17.1-2.5l18.2-52.8l18.6,51c0.1,0.3,0.3,0.6,0.4,0.8C180.1,304.9,173.3,306.1,166.3,306.1z
	 M174.6,217.2c3.6-0.2,6.9-0.6,6.9-0.6c3.3-0.4,2.9-5.2-0.4-5c0,0-9.8,0.8-16.1,0.8c-5.9,0-15.9-0.8-15.9-0.8
	c-3.3-0.2-3.6,4.8-0.4,5c0,0,3.1,0.4,6.3,0.6l9.4,25.8l-13.2,39.7l-22-65.5c3.6-0.2,6.9-0.6,6.9-0.6c3.3-0.4,2.9-5.2-0.4-5
	c0,0-9.8,0.8-16.1,0.8c-1.1,0-2.5,0-3.9-0.1c10.8-16.4,29.4-27.3,50.6-27.3c15.8,0,30.1,6,40.9,15.9c-0.3,0-0.5,0-0.8,0
	c-5.9,0-10.2,5.2-10.2,10.7c0,5,2.9,9.2,5.9,14.2c2.3,4,5,9.2,5,16.7c0,5.2-2,11.2-4.6,19.6l-6,20.2L174.6,217.2z M219.4,216.6
	c4.7,8.6,7.4,18.5,7.4,29c0,22.3-12.1,41.8-30.1,52.3l18.5-53.4c3.5-8.6,4.6-15.5,4.6-21.7C219.8,220.6,219.7,218.5,219.4,216.6z"/>
</svg>
