<?xml version="1.0" encoding="utf-8"?>
<!-- Generator: Adobe Illustrator 18.0.0, SVG Export Plug-In . SVG Version: 6.00 Build 0)  -->
<!DOCTYPE svg PUBLIC "-//W3C//DTD SVG 1.1//EN" "http://www.w3.org/Graphics/SVG/1.1/DTD/svg11.dtd">
<svg version="1.1" id="Layer_1" xmlns="http://www.w3.org/2000/svg" xmlns:xlink="http://www.w3.org/1999/xlink" x="0px" y="0px"
	 width="332px" height="679.6px" viewBox="140 56.2 332 679.6" enable-background="new 140 56.2 332 679.6" xml:space="preserve">
<g>
	<g>
		<path fill="#324155" d="M210,730.8c-35.8,0-65-29.2-65-65V126.2c0-35.8,29.1-65,65-65h192c35.9,0,65,29.2,65,65v539.5
			c0,35.9-29.2,65-65,65L210,730.8L210,730.8z"/>
		<path fill="#486080" d="M402,66.2c33,0,60,27,60,60v539.5c0,33-27,60-60,60H210c-32.9,0-60-27-60-60V126.2c0-33,27-60,60-60H402
			 M402,56.2H210c-38.6,0-70,31.4-70,70v539.5c0,18.6,7.3,36.2,20.6,49.5c13.3,13.3,30.8,20.6,49.4,20.6h192c38.6,0,70-31.4,70-70
			V126.2C472,87.6,440.6,56.2,402,56.2L402,56.2z"/>
	</g>
	<path fill="#486080" d="M306,707.5c15.2,0,27.5-12.3,27.5-27.5s-12.3-27.5-27.5-27.5s-27.5,12.3-27.5,27.5S290.8,707.5,306,707.5"
		/>
	<rect x="168" y="158.2" fill="#D2DEE6" width="276" height="476"/>
	<path fill="#486080" d="M333.9,140.2h-55.8c-5,0-9-4-9-9l0,0c0-5,4-9,9-9h55.8c5,0,9,4,9,9l0,0
		C342.8,136.2,338.8,140.2,333.9,140.2z"/>
	<path fill="#486080" d="M306,103.2L306,103.2c-5,0-9-4-9-9l0,0c0-5,4-9,9-9l0,0c5,0,9,4,9,9l0,0C315,99.2,311,103.2,306,103.2z"/>
</g>
</svg>
