<?xml version="1.0" encoding="utf-8"?>
<!-- Generator: Adobe Illustrator 17.1.0, SVG Export Plug-In . SVG Version: 6.00 Build 0)  -->
<!DOCTYPE svg PUBLIC "-//W3C//DTD SVG 1.1//EN" "http://www.w3.org/Graphics/SVG/1.1/DTD/svg11.dtd">
<svg version="1.1" id="Layer_1" xmlns="http://www.w3.org/2000/svg" xmlns:xlink="http://www.w3.org/1999/xlink" x="0px" y="0px"
	 width="604px" height="295px" viewBox="0 0 604 295" enable-background="new 0 0 604 295" xml:space="preserve">
<path fill="#324155" d="M599.373,232.457c0,31.935-26.002,57.915-57.962,57.915H62.582c-31.956,0-57.954-25.981-57.954-57.915
	V62.607c0-31.97,25.998-57.979,57.954-57.979H541.41c31.961,0,57.962,26.009,57.962,57.979V232.457z"/>
<path fill="#486080" d="M9.255,62.607c0-29.335,24.022-53.351,53.326-53.351H541.41c29.312,0,53.335,24.016,53.335,53.351v169.851
	c0,29.241-24.007,53.287-53.335,53.287H62.582c-29.305,0-53.326-23.951-53.326-53.287V62.607 M41.783,147.533
	c0-4.479-3.645-8.132-8.132-8.132c-4.471,0-8.132,3.653-8.132,8.132c0,4.51,3.661,8.132,8.132,8.132
	C38.138,155.664,41.783,152.043,41.783,147.533 M74.311,171.929v-48.792c0-4.479-3.644-8.132-8.132-8.132
	c-4.471,0-8.132,3.653-8.132,8.132v48.792c0,4.51,3.662,8.132,8.132,8.132C70.667,180.061,74.311,176.439,74.311,171.929
	 M578.497,147.533c0-13.47-10.927-24.396-24.396-24.396c-13.469,0-24.396,10.927-24.396,24.396
	c0,13.469,10.927,24.396,24.396,24.396C567.569,171.929,578.497,161.001,578.497,147.533 M0,62.607l0,169.851
	C0,266.943,28.074,295,62.582,295H541.41c16.649,0,32.35-6.531,44.21-18.388C597.472,264.76,604,249.079,604,232.457V62.607
	C604,28.085,575.922,0,541.41,0L62.582,0C28.074,0,0,28.085,0,62.607L0,62.607z M569.241,147.533c0,8.349-6.792,15.141-15.14,15.141
	s-15.141-6.792-15.141-15.141c0-8.349,6.792-15.141,15.141-15.141S569.241,139.184,569.241,147.533L569.241,147.533z"/>
<rect x="90.313" y="25.164" fill="#D2DEE6" width="422" height="244"/>
<rect x="90.313" y="25.164" fill="#B1C6D4" width="422" height="244"/>
<g>
	<g>
		<rect x="111.926" y="249" fill="#90AEC2" width="378.927" height="1"/>
	</g>
	<g>
		<rect x="111.926" y="210.146" fill="#90AEC2" width="378.927" height="1"/>
	</g>
	<g>
		<rect x="111.926" y="171.292" fill="#90AEC2" width="378.927" height="1"/>
	</g>
	<g>
		<rect x="111.926" y="132.438" fill="#90AEC2" width="378.927" height="1"/>
	</g>
	<g>
		<rect x="111.926" y="93.584" fill="#90AEC2" width="378.927" height="1"/>
	</g>
	<g>
		<rect x="111.926" y="54.729" fill="#90AEC2" width="378.927" height="1"/>
	</g>
</g>
</svg>
