<svg width="287" height="45" viewBox="0 0 287 45" fill="none" xmlns="http://www.w3.org/2000/svg">
	<path d="M22.7905 1.35C27.0751 1.35 31.2458 2.61 34.7783 4.9725C38.2197 7.2675 40.9317 10.5075 42.5499 14.2875C45.3759 20.88 44.6238 28.4175 40.5671 34.335C38.2424 37.7325 34.9606 40.41 31.1318 42.0075C24.4542 44.7975 16.8194 44.055 10.8255 40.05C7.38412 37.755 4.67205 34.515 3.05393 30.735C0.227905 24.1425 0.979991 16.605 5.0367 10.6875C7.36133 7.29 10.6432 4.6125 14.472 3.015C17.0929 1.9125 19.9417 1.35 22.7905 1.35ZM22.7905 0C10.2101 0 0 10.08 0 22.5C0 34.92 10.2101 45 22.7905 45C35.3708 45 45.581 34.92 45.581 22.5C45.581 10.08 35.3708 0 22.7905 0Z" fill="#23282D"/>
	<path d="M3.80615 22.5002C3.80615 29.6777 7.95402 36.2477 14.5177 39.3752L5.44707 14.8727C4.35312 17.2802 3.80615 19.8677 3.80615 22.5002ZM35.6217 21.5552C35.6217 19.2377 34.7784 17.6402 34.0491 16.3802C33.3198 15.1202 32.1803 13.5227 32.1803 11.9927C32.1803 10.4627 33.5022 8.66272 35.371 8.66272H35.6217C27.8957 1.66522 15.8851 2.18272 8.79727 9.83272C8.11356 10.5752 7.47542 11.3627 6.92845 12.1952H8.15914C10.1419 12.1952 13.2186 11.9477 13.2186 11.9477C14.2442 11.8802 14.3582 13.3652 13.3326 13.5002C13.3326 13.5002 12.307 13.6127 11.1675 13.6802L18.073 33.9977L22.2209 21.6902L19.2581 13.6802C18.2325 13.6127 17.2753 13.5002 17.2753 13.5002C16.2498 13.4327 16.3637 11.9027 17.3893 11.9477C17.3893 11.9477 20.5344 12.1952 22.3804 12.1952C24.2264 12.1952 27.4399 11.9477 27.4399 11.9477C28.4655 11.8802 28.5794 13.3652 27.5538 13.5002C27.5538 13.5002 26.5283 13.6127 25.3888 13.6802L32.2487 33.8402L34.2087 27.7202C35.0747 25.0427 35.5989 23.1527 35.5989 21.5327L35.6217 21.5552ZM23.1097 24.1202L17.4121 40.4777C21.2409 41.5802 25.3204 41.4902 29.0808 40.1852L28.9441 39.9377L23.1097 24.1202ZM39.4505 13.5002C39.5416 14.1302 39.5872 14.7827 39.5872 15.4352C39.5872 17.3477 39.2226 19.4852 38.1514 22.1402L32.3399 38.7002C41.2281 33.5927 44.396 22.4102 39.4505 13.5002Z" fill="#23282D"/>
	<path d="M127.058 16.6952H118.01V17.6402C120.836 17.6402 121.292 18.2477 121.292 21.7802V28.1702C121.292 31.7252 120.836 32.3777 118.01 32.3777C115.822 32.0852 114.363 30.9377 112.335 28.7327L110.01 26.2352C113.155 25.6952 114.819 23.7377 114.819 21.5327C114.819 18.7877 112.449 16.6727 107.982 16.6727H99.0708V17.6177C101.897 17.6177 102.353 18.2252 102.353 21.7577V28.1477C102.353 31.7027 101.897 32.3552 99.0708 32.3552V33.3002H109.144V32.4002C106.318 32.4002 105.862 31.7477 105.862 28.1927V26.3927H106.728L112.358 33.3452H127.103C134.35 33.3452 137.496 29.5427 137.496 24.9977C137.496 20.4527 134.35 16.6952 127.103 16.6952H127.058ZM105.885 24.8402V18.2027H107.959C110.238 18.2027 111.241 19.7552 111.241 21.5552C111.241 23.3552 110.238 24.8627 107.959 24.8627L105.885 24.8402ZM127.263 31.7927H126.898C125.075 31.7927 124.824 31.3427 124.824 29.0477V18.2027H127.263C132.527 18.2027 133.484 22.0052 133.484 24.9527C133.484 27.9002 132.527 31.7927 127.263 31.7927Z" fill="#23282D"/>
	<path d="M70.8563 26.7084L74.3432 16.5159C75.346 13.5684 74.8902 12.7134 71.6539 12.7134V11.7009H81.1804V12.6909C77.9897 12.6909 77.2376 13.4334 75.9613 17.1009L70.1954 34.2009H69.5344L64.361 18.5409L59.0964 34.2009H58.4355L52.8062 17.1009C51.5983 13.4559 50.7779 12.6909 47.8379 12.6909V11.7009H59.0736V12.6909C56.0881 12.6909 55.2676 13.3884 56.3387 16.4934L59.7345 26.6859L64.8852 11.7009H65.8424L70.8563 26.7084Z" fill="#23282D"/>
	<path d="M88.0628 33.9974C82.5019 33.9974 77.9438 29.9474 77.9438 24.9974C77.9438 20.0474 82.5019 16.0424 88.0628 16.0424C93.6237 16.0424 98.1818 20.0924 98.1818 24.9974C98.1818 29.9024 93.6237 33.9974 88.0628 33.9974ZM88.0628 17.5949C83.4136 17.5949 81.7726 21.7349 81.7726 24.9974C81.7726 28.2599 83.4136 32.3999 88.0628 32.3999C92.7121 32.3999 94.3986 28.3049 94.3986 24.9974C94.3986 21.6899 92.7805 17.5949 88.0628 17.5949Z" fill="#23282D"/>
	<path d="M149.961 32.3559V33.3459H138.361V32.3559C141.757 32.3559 142.372 31.5009 142.372 26.5059V18.4959C142.372 13.5009 141.757 12.6909 138.361 12.6909V11.7009H148.844C154.064 11.7009 156.958 14.3559 156.958 17.9109C156.958 21.4659 154.064 24.0534 148.844 24.0534H145.95V26.5059C145.95 31.5009 146.565 32.3559 149.961 32.3559ZM148.844 13.5009H145.95V22.2084H148.844C151.671 22.2084 152.992 20.2509 152.992 17.9109C152.992 15.5709 151.671 13.5009 148.844 13.5009Z" fill="#23282D"/>
	<path d="M191.736 28.6427L191.485 29.5427C191.029 31.1852 190.482 31.7927 186.881 31.7927H186.175C183.531 31.7927 183.075 31.1852 183.075 27.6527V25.3577C187.018 25.3577 187.337 25.7177 187.337 28.3052H188.294V20.8577H187.337C187.337 23.4677 187.041 23.8052 183.075 23.8052V18.2027H185.856C189.457 18.2027 190.004 18.8102 190.459 20.4527L190.71 21.3977H191.531L191.166 16.6952H176.284V17.6402C179.11 17.6402 179.566 18.2477 179.566 21.7802V28.1702C179.566 31.4102 179.178 32.2427 176.945 32.3552C174.825 32.0402 173.366 30.8927 171.361 28.7327L169.036 26.2352C172.181 25.6952 173.845 23.7377 173.845 21.5327C173.845 18.7877 171.475 16.6727 167.008 16.6727H158.12V17.6177C160.946 17.6177 161.401 18.2252 161.401 21.7577V28.1477C161.401 31.7027 160.946 32.3552 158.12 32.3552V33.3002H168.193V32.4002C165.367 32.4002 164.911 31.7477 164.911 28.1927V26.3927H165.777L171.384 33.3452H192.191L192.488 28.6427H191.736ZM164.888 24.8402V18.2027H166.962C169.241 18.2027 170.244 19.7552 170.244 21.5552C170.244 23.3552 169.241 24.8627 166.962 24.8627L164.888 24.8402Z" fill="#23282D"/>
	<path d="M202.015 33.9974C199.986 33.9974 198.209 32.9399 197.457 32.2874C197.024 32.7824 196.75 33.3674 196.636 33.9974H195.679V27.0899H196.682C197.092 30.3974 199.417 32.3324 202.402 32.3324C204.02 32.3324 205.342 31.4324 205.342 29.9249C205.342 28.4174 204.18 27.6299 202.106 26.6849L199.212 25.3349C197.183 24.3899 195.656 22.7249 195.656 20.5424C195.656 18.3599 197.935 16.0874 201.08 16.0874C202.516 16.0649 203.906 16.5374 205.023 17.3924C205.274 17.1899 205.525 16.6499 205.684 16.0424H206.641V21.9374H205.57C205.205 19.5974 203.906 17.6399 201.217 17.6399C199.804 17.6399 198.482 18.4499 198.482 19.6874C198.482 20.9249 199.553 21.6899 201.969 22.7924L204.75 24.1424C207.188 25.2899 208.145 27.1349 208.145 28.6424C208.145 31.7924 205.365 33.9974 201.969 33.9974" fill="#23282D"/>
	<path d="M217.331 33.9974C215.302 33.9974 213.525 32.9399 212.773 32.2874C212.34 32.7824 212.066 33.3674 211.952 33.9974H210.995V27.0899H211.998C212.408 30.3974 214.733 32.3324 217.718 32.3324C219.336 32.3324 220.658 31.4324 220.658 29.9249C220.658 28.4174 219.496 27.6299 217.422 26.6849L214.527 25.3349C212.499 24.3899 210.972 22.7249 210.972 20.5424C210.972 18.3599 213.251 16.0874 216.396 16.0874C217.832 16.0649 219.222 16.5374 220.339 17.3924C220.59 17.1899 220.84 16.6499 221 16.0424H221.957V21.9374H220.886C220.521 19.5974 219.222 17.6399 216.533 17.6399C215.12 17.6399 213.798 18.4499 213.798 19.6874C213.798 20.9249 214.869 21.6899 217.285 22.7924L220.066 24.1424C222.504 25.2899 223.461 27.1349 223.461 28.6424C223.461 31.7924 220.681 33.9974 217.285 33.9974" fill="#23282D"/>
	<path d="M242.537 33.8173C237.386 33.8173 233.17 29.8573 233.17 25.0198C233.17 20.1823 237.386 16.2223 242.537 16.2223C247.687 16.2223 251.926 20.1823 251.926 25.0198C251.926 29.8573 247.71 33.8173 242.537 33.8173ZM235.836 25.0198C235.836 28.4623 237.682 32.7148 242.537 32.7148C247.391 32.7148 249.26 28.4623 249.26 25.0198C249.26 21.5773 247.414 17.3023 242.537 17.3023C237.66 17.3023 235.836 21.5773 235.836 25.0198Z" fill="#23282D"/>
	<path d="M263.708 29.2497C265.372 31.1847 267.241 32.5797 268.927 32.7822V33.3672H264.278L258.717 26.0772H257.395V29.5422C257.395 32.3097 257.737 32.7822 260.062 32.7822V33.3672H252.473V32.7822C254.797 32.7822 255.139 32.3097 255.139 29.5422V20.4972C255.139 17.7297 254.797 17.2797 252.473 17.2797V16.6947H259.902C263.799 16.6947 265.942 18.8097 265.942 21.3747C265.942 23.9397 264.119 25.6947 260.928 26.0322L263.708 29.2497ZM263.458 21.3972C263.458 19.3947 262.341 17.7297 259.88 17.7297H257.395V25.0647H259.88C262.318 25.0647 263.458 23.4222 263.458 21.3972Z" fill="#23282D"/>
	<path d="M279.388 27.0223V26.4598H286.75V27.0223C284.425 27.0223 284.083 27.4948 284.083 30.2623V32.3773C280.961 32.3773 279.707 33.8173 276.767 33.8173C272.027 33.8173 268.13 29.8573 268.13 25.0198C268.13 20.1823 272.004 16.2223 276.767 16.2223C278.727 16.2223 280.573 17.0773 281.987 18.5848C282.465 18.1798 282.807 17.6173 282.944 17.0098H283.513V23.1073H282.944C282.192 19.5073 279.981 17.3023 276.836 17.3023C272.346 17.3023 270.705 21.5773 270.705 25.0198C270.705 28.4623 272.164 32.6248 277.36 32.6248C279.799 32.6248 282.009 31.3198 282.009 28.8223C282.009 27.6298 281.303 27.0223 279.388 27.0223Z" fill="#23282D"/>
	<path d="M228.817 33.6379C227.814 33.6379 227.016 32.8504 227.016 31.8604C227.016 30.8704 227.814 30.0829 228.817 30.0829C229.819 30.0829 230.617 30.8704 230.617 31.8604C230.617 32.8504 229.819 33.6379 228.817 33.6379Z" fill="#23282D"/>
</svg>