<?xml version="1.0" encoding="UTF-8" standalone="no"?>
<svg width="256px" height="41px" viewBox="0 0 256 41" version="1.1" xmlns="http://www.w3.org/2000/svg" xmlns:xlink="http://www.w3.org/1999/xlink" xmlns:sketch="http://www.bohemiancoding.com/sketch/ns">
    <!-- Generator: Sketch 3.5.1 (25234) - http://www.bohemiancoding.com/sketch -->
    <title>Logotype</title>
    <desc>Created with Sketch.</desc>
    <defs></defs>
    <g id="Page-1" stroke="none" stroke-width="1" fill="none" fill-rule="evenodd" sketch:type="MSPage">
        <g id="Desktop---Login" sketch:type="MSArtboardGroup" transform="translate(-576.000000, -119.000000)">
            <g id="Logotype" sketch:type="MSLayerGroup" transform="translate(576.000000, 119.000000)">
                <path d="M20.3336388,0 C9.10379921,0 4.06671961e-05,9.1035552 4.06671961e-05,20.3335981 C4.06671961e-05,31.5634376 9.10379921,40.6671962 20.3336388,40.6671962 C31.5636817,40.6671962 40.6672369,31.5634376 40.6672369,20.3335981 C40.6672369,9.1035552 31.5636817,0 20.3336388,0 M20.3336388,1.22001589 C22.9145824,1.22001589 25.417445,1.7253058 27.7730923,2.7216521 C28.9054704,3.20050834 29.9975879,3.79323272 31.0193512,4.48355838 C32.0317611,5.16758062 32.9837801,5.95306751 33.8489747,6.81826211 C34.7141693,7.68345671 35.4996562,8.63547577 36.1836785,9.64788562 C36.8740041,10.6696489 37.4667285,11.7617665 37.9457881,12.8941446 C38.9421344,15.2497919 39.447221,17.7526545 39.447221,20.3335981 C39.447221,22.9145417 38.9421344,25.4174043 37.9457881,27.7730516 C37.4667285,28.9054297 36.8740041,29.9975473 36.1836785,31.0193106 C35.4996562,32.0317204 34.7141693,32.9837395 33.8489747,33.8489341 C32.9837801,34.7141287 32.0317611,35.4996156 31.0193512,36.1836378 C29.9975879,36.8739635 28.9054704,37.4666878 27.7730923,37.9455441 C25.417445,38.9418904 22.9145824,39.4471803 20.3336388,39.4471803 C17.7526952,39.4471803 15.2498326,38.9418904 12.8941852,37.9455441 C11.7618071,37.4666878 10.6696896,36.8739635 9.64792629,36.1836378 C8.63551644,35.4996156 7.68349738,34.7141287 6.81830278,33.8489341 C5.95310818,32.9837395 5.16762129,32.0317204 4.48359905,31.0193106 C3.79327339,29.9975473 3.20054901,28.9054297 2.72169277,27.7730516 C1.72534647,25.4174043 1.22005655,22.9145417 1.22005655,20.3335981 C1.22005655,17.7526545 1.72534647,15.2497919 2.72169277,12.8941446 C3.20054901,11.7617665 3.79327339,10.6696489 4.48359905,9.64788562 C5.16762129,8.63547577 5.95310818,7.68345671 6.81830278,6.81826211 C7.68349738,5.95306751 8.63551644,5.16758062 9.64792629,4.48355838 C10.6696896,3.79323272 11.7618071,3.20050834 12.8941852,2.7216521 C15.2498326,1.7253058 17.7526952,1.22001589 20.3336388,1.22001589" id="Fill-1" fill="#0073AA" sketch:type="MSShapeGroup"></path>
                <path d="M35.2031314,12.2041646 C35.2759257,12.7438183 35.3169995,13.3227158 35.3169995,13.9463473 C35.3169995,15.6651463 34.9949153,17.5980581 34.0280527,20.0153163 L28.8529487,34.9788111 C33.8905976,32.0418262 37.2783784,26.5840851 37.2783784,20.3329271 C37.2783784,17.3869954 36.5254253,14.617356 35.2031314,12.2041646 L35.2031314,12.2041646 Z M20.6312616,21.8150431 L15.5464388,36.5878087 C17.0651552,37.0345379 18.6704928,37.2783377 20.3335778,37.2783377 C22.3067501,37.2783377 24.1998081,36.93775 25.960901,36.3175752 C25.9155571,36.2449843 25.8738732,36.1681233 25.8393061,36.0839422 L20.6312616,21.8150431 Z M31.77265,19.478306 C31.77265,17.3835387 31.0203069,15.9337531 30.3757319,14.8054418 C29.5168407,13.4089303 28.7114268,12.2275482 28.7114268,10.83124 C28.7114268,9.27388975 29.8924022,7.82390087 31.5569106,7.82390087 C31.6319415,7.82390087 31.7031091,7.83305099 31.7763101,7.83772772 C28.7614475,5.07540842 24.7449519,3.38893979 20.3335778,3.38893979 C14.4134507,3.38893979 9.20581287,6.42637268 6.17590342,11.0260359 C6.57383193,11.0386427 6.94858014,11.0465728 7.26639428,11.0465728 C9.03846736,11.0465728 11.7824864,10.83124 11.7824864,10.83124 C12.695465,10.7777627 12.8034364,12.1197801 11.8908645,12.2275482 C11.8908645,12.2275482 10.9725992,12.3351129 9.95185258,12.3885903 L16.1220829,30.7427126 L19.8307279,19.6216578 L17.1908168,12.3885903 C16.2780416,12.3351129 15.4136604,12.2275482 15.4136604,12.2275482 C14.5002751,12.1736642 14.6072299,10.7777627 15.5212251,10.83124 C15.5212251,10.83124 18.3189249,11.0465728 19.9838399,11.0465728 C21.7557096,11.0465728 24.5003387,10.83124 24.5003387,10.83124 C25.4137239,10.7777627 25.5212886,12.1197801 24.6083101,12.2275482 C24.6083101,12.2275482 23.6892315,12.3351129 22.6690948,12.3885903 L28.7927612,30.6030208 L30.5408407,25.0639454 C31.3173808,22.6432305 31.77265,20.9282948 31.77265,19.478306 L31.77265,19.478306 Z M3.38898046,20.3329271 C3.38898046,27.0397611 7.28632121,32.8360566 12.9392648,35.5825156 L4.8562529,13.437194 C3.91602732,15.5443647 3.38898046,17.8764251 3.38898046,20.3329271 L3.38898046,20.3329271 Z" id="Fill-3" fill="#0073AA" sketch:type="MSShapeGroup"></path>
                <path d="M113.504239,28.7382672 L113.187848,28.7382672 C111.56116,28.7382672 111.335457,28.3315952 111.335457,26.2528915 L111.335457,16.4480305 L113.504239,16.4480305 C118.20313,16.4480305 119.061818,19.8815619 119.061818,22.5477033 C119.061818,25.3041258 118.20313,28.7382672 113.504239,28.7382672 L113.504239,28.7382672 Z M94.4364073,22.4570154 L94.4364073,16.4480305 L96.2887981,16.4480305 C98.3221579,16.4480305 99.2261897,17.8484054 99.2261897,19.4750932 C99.2261897,21.0566405 98.3221579,22.4570154 96.2887981,22.4570154 L94.4364073,22.4570154 Z M113.368614,15.0925929 L105.280519,15.0925929 L105.280519,15.9506707 C107.810628,15.9506707 108.2173,16.4927644 108.2173,19.7012029 L108.2173,25.4850948 C108.2173,28.6929233 107.810628,29.2803609 105.280519,29.2803609 C103.33805,29.0093141 102.027346,27.9698605 100.219689,25.9818446 L98.1417989,23.7229852 C100.942955,23.2256254 102.434018,21.4633125 102.434018,19.4750932 C102.434018,16.9903276 100.31058,15.0925929 96.334142,15.0925929 L88.3814685,15.0925929 L88.3814685,15.9506707 C90.9115781,15.9506707 91.31825,16.4927644 91.31825,19.7012029 L91.31825,25.4850948 C91.31825,28.6929233 90.9115781,29.2803609 88.3814685,29.2803609 L88.3814685,30.1386421 L97.3731889,30.1386421 L97.3731889,29.2803609 C94.8430793,29.2803609 94.4364073,28.6929233 94.4364073,25.4850948 L94.4364073,23.858407 L95.2044073,23.858407 L100.219689,30.1386421 L113.368614,30.1386421 C119.830225,30.1386421 122.631381,26.7049074 122.631381,22.5926405 C122.631381,18.481187 119.830225,15.0925929 113.368614,15.0925929 L113.368614,15.0925929 Z" id="Fill-5" fill="#32373C" sketch:type="MSShapeGroup"></path>
                <path d="M63.2145334,24.1295555 L66.332284,14.9111155 C67.2361125,12.2453808 66.8296438,11.4775841 63.9375962,11.4775841 L63.9375962,10.5735523 L72.4325668,10.5735523 L72.4325668,11.4775841 C69.5858631,11.4775841 68.9081442,12.1553029 67.7784095,15.4538192 L62.6268925,30.9071504 L62.0398615,30.9071504 L57.4306415,16.7639129 L52.7317503,30.9071504 L52.1443126,30.9071504 L47.1288273,15.4538192 C46.0444365,12.1553029 45.3213738,11.4775841 42.7005763,11.4775841 L42.7005763,10.5735523 L52.7317503,10.5735523 L52.7317503,11.4775841 C50.0656089,11.4775841 49.3425461,12.109959 50.2919218,14.9111155 L53.3187813,24.1295555 L57.8826573,10.5735523 L58.7413452,10.5735523 L63.2145334,24.1295555 Z" id="Fill-7" fill="#32373C" sketch:type="MSShapeGroup"></path>
                <path d="M78.5765668,15.9058351 C74.4199727,15.9058351 72.9736438,19.6559606 72.9736438,22.5925388 C72.9736438,25.5752743 74.4199727,29.2804626 78.5765668,29.2804626 C82.7791149,29.2804626 84.2248337,25.5752743 84.2248337,22.5925388 C84.2248337,19.6559606 82.7791149,15.9058351 78.5765668,15.9058351 M78.5765668,30.7261814 C73.6066288,30.7261814 69.5395025,27.0663371 69.5395025,22.5925388 C69.5395025,18.1648979 73.6066288,14.5044435 78.5765668,14.5044435 C83.5471149,14.5044435 87.6136311,18.1648979 87.6136311,22.5925388 C87.6136311,27.0663371 83.5471149,30.7261814 78.5765668,30.7261814" id="Fill-9" fill="#32373C" sketch:type="MSShapeGroup"></path>
                <path d="M132.797245,12.2000979 L130.221791,12.2000979 L130.221791,20.0624902 L132.797245,20.0624902 C135.327761,20.0624902 136.502433,18.3003806 136.502433,16.176943 C136.502433,14.0081614 135.327761,12.2000979 132.797245,12.2000979 M133.791354,29.2351797 L133.791354,30.1386014 L123.444196,30.1386014 L123.444196,29.2351797 C126.471666,29.2351797 127.013963,28.4671797 127.013963,23.9482408 L127.013963,16.7190367 C127.013963,12.2000979 126.471666,11.4774418 123.444196,11.4774418 L123.444196,10.57341 L132.797245,10.57341 C137.451402,10.57341 140.027262,12.9685045 140.027262,16.176943 C140.027262,19.2946936 137.451402,21.734522 132.797245,21.734522 L130.221791,21.734522 L130.221791,23.9482408 C130.221791,28.4671797 130.763885,29.2351797 133.791354,29.2351797" id="Fill-11" fill="#32373C" sketch:type="MSShapeGroup"></path>
                <path d="M147.121268,22.4570967 L147.121268,16.4481118 L148.973659,16.4481118 C151.006816,16.4481118 151.910847,17.8484867 151.910847,19.4749712 C151.910847,21.0567218 151.006816,22.4570967 148.973659,22.4570967 L147.121268,22.4570967 Z M171.06835,25.8916448 L170.842444,26.7049887 C170.435975,28.1960515 169.938615,28.7383485 166.730584,28.7383485 L166.097802,28.7383485 C163.748661,28.7383485 163.34199,28.1960515 163.34199,24.987613 L163.34199,22.9095193 C166.866209,22.9095193 167.137256,23.2255034 167.137256,25.575254 L167.995943,25.575254 L167.995943,18.8425963 L167.137256,18.8425963 C167.137256,21.1923469 166.866209,21.5081277 163.34199,21.5081277 L163.34199,16.4481118 L165.826552,16.4481118 C169.03499,16.4481118 169.531943,16.9902056 169.938615,18.4812683 L170.164725,19.3393461 L170.887381,19.3393461 L170.571397,15.0924708 L157.287051,15.0924708 L157.287051,15.950752 C159.81716,15.950752 160.223832,16.4928458 160.223832,19.7012842 L160.223832,25.4851762 C160.223832,28.419721 159.878161,29.1590507 157.883435,29.2643787 C155.987327,28.9750316 154.68557,27.9406615 152.90455,25.981926 L150.825847,23.7228632 C153.627613,23.2255034 155.118676,21.4633938 155.118676,19.4749712 C155.118676,16.9902056 152.995238,15.0924708 149.019003,15.0924708 L141.066329,15.0924708 L141.066329,15.950752 C143.596439,15.950752 144.003111,16.4928458 144.003111,19.7012842 L144.003111,25.4851762 C144.003111,28.6930046 143.596439,29.2804423 141.066329,29.2804423 L141.066329,30.1387234 L150.05805,30.1387234 L150.05805,29.2804423 C147.52794,29.2804423 147.121268,28.6930046 147.121268,25.4851762 L147.121268,23.8584883 L147.889065,23.8584883 L152.90455,30.1387234 L171.475022,30.1387234 L171.746069,25.8916448 L171.06835,25.8916448 Z" id="Fill-13" fill="#32373C" sketch:type="MSShapeGroup"></path>
                <path d="M180.240857,30.7262017 C178.433403,30.7262017 176.851652,29.7772327 176.173934,29.1897951 C175.948027,29.4159047 175.541355,30.0938268 175.451278,30.7262017 L174.59259,30.7262017 L174.59259,24.4909039 L175.496011,24.4909039 C175.857949,27.4730294 177.936043,29.235139 180.602185,29.235139 C182.047903,29.235139 183.222982,28.4217951 183.222982,27.0663574 C183.222982,25.8916855 182.183325,24.9876537 180.331138,24.1295759 L177.755684,22.90956 C175.948027,22.0504654 174.59259,20.5594027 174.59259,18.5715902 C174.59259,16.4026052 176.625949,14.5502145 179.427513,14.5502145 C180.918575,14.5502145 182.183325,15.0925115 182.951935,15.7248864 C183.177638,15.5441207 183.403341,15.0465576 183.539373,14.5044639 L184.397654,14.5044639 L184.397654,19.8367466 L183.448685,19.8367466 C183.132294,17.7129023 181.957622,15.9505894 179.563138,15.9505894 C178.297778,15.9505894 177.122699,16.6738554 177.122699,17.8035902 C177.122699,18.9780588 178.071668,19.610637 180.240857,20.6047466 L182.725622,21.8247625 C184.895014,22.8638094 185.753092,24.5362478 185.753092,25.8916855 C185.753092,28.7381859 183.267919,30.7262017 180.240857,30.7262017" id="Fill-15" fill="#32373C" sketch:type="MSShapeGroup"></path>
                <path d="M193.90357,30.7262017 C192.096117,30.7262017 190.514366,29.7772327 189.836647,29.1897951 C189.610741,29.4159047 189.204069,30.0938268 189.113991,30.7262017 L188.255304,30.7262017 L188.255304,24.4909039 L189.158725,24.4909039 C189.520663,27.4730294 191.598757,29.235139 194.264898,29.235139 C195.710617,29.235139 196.885696,28.4217951 196.885696,27.0663574 C196.885696,25.8916855 195.846039,24.9876537 193.993852,24.1295759 L191.418195,22.90956 C189.610741,22.0504654 188.255304,20.5594027 188.255304,18.5715902 C188.255304,16.4026052 190.28846,14.5502145 193.090227,14.5502145 C194.581289,14.5502145 195.846039,15.0925115 196.614649,15.7248864 C196.840352,15.5441207 197.066055,15.0465576 197.20168,14.5044639 L198.060368,14.5044639 L198.060368,19.8367466 L197.111399,19.8367466 C196.795008,17.7129023 195.620336,15.9505894 193.225852,15.9505894 C191.960492,15.9505894 190.785413,16.6738554 190.785413,17.8035902 C190.785413,18.9780588 191.734179,19.610637 193.90357,20.6047466 L196.388336,21.8247625 C198.557728,22.8638094 199.415806,24.5362478 199.415806,25.8916855 C199.415806,28.7381859 196.93043,30.7262017 193.90357,30.7262017" id="Fill-17" fill="#32373C" sketch:type="MSShapeGroup"></path>
                <path d="M210.419129,22.6155768 C210.419129,25.7253973 212.074487,29.5629573 216.38826,29.5629573 C220.727246,29.5629573 222.382605,25.7253973 222.382605,22.6155768 C222.382605,19.5057563 220.727246,15.643186 216.38826,15.643186 C212.074487,15.643186 210.419129,19.5057563 210.419129,22.6155768 M216.38826,30.5660137 C211.798763,30.5660137 208.036641,26.9795736 208.036641,22.6155768 C208.036641,18.25158 211.798763,14.66514 216.38826,14.66514 C221.00297,14.66514 224.764889,18.25158 224.764889,22.6155768 C224.764889,26.9795736 221.00297,30.5660137 216.38826,30.5660137" id="Fill-19" fill="#32373C" sketch:type="MSShapeGroup"></path>
                <path d="M235.053344,19.329952 C235.053344,17.5239218 234.050084,16.0198456 231.868086,16.0198456 L229.661077,16.0198456 L229.661077,22.6406685 L231.868086,22.6406685 C234.050084,22.6406685 235.053344,21.1609925 235.053344,19.329952 L235.053344,19.329952 Z M235.27925,26.4278011 C236.758926,28.1836073 238.439295,29.437377 239.943981,29.6130593 L239.943981,30.1396994 L235.80589,30.1396994 L230.839816,23.5434802 L229.661077,23.5434802 L229.661077,26.678311 C229.661077,29.186867 229.961608,29.6130593 232.043768,29.6130593 L232.043768,30.1396994 L225.271867,30.1396994 L225.271867,29.6130593 C227.353417,29.6130593 227.654761,29.186867 227.654761,26.678311 L227.654761,18.5271816 C227.654761,16.0198456 227.353417,15.6180537 225.271867,15.6180537 L225.271867,15.0914135 L231.893299,15.0914135 C235.379088,15.0914135 237.285566,16.9978917 237.285566,19.329952 C237.285566,21.5119504 235.655422,23.2427463 232.821122,23.5434802 L235.27925,26.4278011 Z" id="Fill-21" fill="#32373C" sketch:type="MSShapeGroup"></path>
                <path d="M249.264801,24.4215867 L249.264801,23.9199568 L255.83601,23.9199568 L255.83601,24.4215867 C253.754459,24.4215867 253.453115,24.8477789 253.453115,27.3557249 L253.453115,29.2619997 C250.669039,29.2619997 249.540524,30.5659933 246.93213,30.5659933 C242.693592,30.5659933 239.232813,26.9795533 239.232813,22.6155565 C239.232813,18.2515597 242.693592,14.6651196 246.93213,14.6651196 C248.687936,14.6651196 250.318081,15.4422697 251.597471,16.796894 C251.923419,16.5459774 252.324397,15.9947336 252.450059,15.3670354 L252.951485,15.3670354 L252.951485,20.8849639 L252.450059,20.8849639 C251.772747,17.6244715 249.816654,15.6431657 247.007568,15.6431657 C242.994936,15.6431657 241.539863,19.505736 241.539863,22.6155565 C241.539863,25.725377 242.844264,29.4874993 247.483984,29.4874993 C249.665983,29.4874993 251.622685,28.3087606 251.622685,26.0517312 C251.622685,24.9732372 250.995597,24.4215867 249.264801,24.4215867" id="Fill-23" fill="#32373C" sketch:type="MSShapeGroup"></path>
                <path d="M204.141334,30.4075133 C203.262719,30.4075133 202.58439,29.6793671 202.58439,28.8003457 C202.58439,27.9215276 203.262719,27.1929747 204.141334,27.1929747 C205.020559,27.1929747 205.773715,27.9215276 205.773715,28.8003457 C205.773715,29.6793671 205.020559,30.4075133 204.141334,30.4075133" id="Fill-25" fill="#32373C" sketch:type="MSShapeGroup"></path>
            </g>
        </g>
    </g>
</svg>