<?xml version="1.0" encoding="UTF-8" standalone="no"?>
<svg width="254px" height="53px" viewBox="0 0 254 53" version="1.1" xmlns="http://www.w3.org/2000/svg" xmlns:xlink="http://www.w3.org/1999/xlink" xmlns:sketch="http://www.bohemiancoding.com/sketch/ns">
    <!-- Generator: Sketch 3.4.4 (17249) - http://www.bohemiancoding.com/sketch -->
    <title>Logotype - Standard</title>
    <desc>Created with Sketch.</desc>
    <defs></defs>
    <g id="Welcome" stroke="none" stroke-width="1" fill="none" fill-rule="evenodd" sketch:type="MSPage">
        <g id="Login-Page" sketch:type="MSArtboardGroup" transform="translate(-577.000000, -102.000000)" fill="#F5F5F5">
            <g id="Logotype---Standard" sketch:type="MSLayerGroup" transform="translate(552.000000, 77.000000)">
                <g transform="translate(25.675162, 25.598529)" sketch:type="MSShapeGroup">
                    <g id="Word-Mark" transform="translate(54.084958, 13.329412)">
                        <path d="M89.5561819,5.80071765 L79.3136152,5.80071765 L79.3136152,6.88418676 C82.5176932,6.88418676 83.0325637,7.56868235 83.0325637,11.6196118 L83.0325637,18.9221603 C83.0325637,22.9724838 82.5176932,23.7142353 79.3136152,23.7142353 C76.8536612,23.3719118 75.1938911,22.0594191 72.9048516,19.5495515 L70.2732234,16.6973603 C73.8204978,16.0693632 75.7087616,13.8445632 75.7087616,11.3339382 C75.7087616,8.19683088 73.0197061,5.80071765 67.9841839,5.80071765 L57.9132914,5.80071765 L57.9132914,6.88418676 C61.1173693,6.88418676 61.6322399,7.56868235 61.6322399,11.6196118 L61.6322399,18.9221603 C61.6322399,22.9724838 61.1173693,23.7142353 57.9132914,23.7142353 L57.9132914,24.7977044 L69.299998,24.7977044 L69.299998,23.7142353 C66.096072,23.7142353 65.5810495,22.9724838 65.5810495,18.9221603 L65.5810495,16.8685221 L66.5535152,16.8685221 L72.9048516,24.7977044 L89.5561819,24.7977044 C97.7389625,24.7977044 101.286237,20.4624647 101.286237,15.2702044 C101.286237,10.0793074 97.7389625,5.80071765 89.5561819,5.80071765 L89.5561819,5.80071765 Z M65.5810495,15.0990426 L65.5810495,7.51218382 L67.9269085,7.51218382 C70.5017171,7.51218382 71.6464648,9.28014853 71.6464648,11.3339382 C71.6464648,13.3310779 70.5017171,15.0990426 67.9269085,15.0990426 L65.5810495,15.0990426 L65.5810495,15.0990426 Z M89.7278561,23.0295882 L89.3272324,23.0295882 C87.2672944,23.0295882 86.9813733,22.5162544 86.9813733,19.8917235 L86.9813733,7.51218382 L89.7278561,7.51218382 C95.6784168,7.51218382 96.7658891,11.8474235 96.7658891,15.2137059 C96.7658891,18.6937426 95.6784168,23.0295882 89.7278561,23.0295882 L89.7278561,23.0295882 Z" id="Fill-2"></path>
                        <path d="M26.0425147,17.2108456 L29.9907166,5.57169412 C31.1354643,2.20601765 30.6205937,1.23645441 26.9583128,1.23645441 L26.9583128,0.0949720588 L37.715902,0.0949720588 L37.715902,1.23645441 C34.1110485,1.23645441 33.2528296,2.09211176 31.8221609,6.25679559 L25.2985427,25.768025 L24.5550265,25.768025 L18.7181049,7.91100588 L12.7675442,25.768025 L12.0234203,25.768025 L5.67223588,6.25679559 C4.2989945,2.09211176 3.3831964,1.23645441 0.0644157921,1.23645441 L0.0644157921,0.0949720588 L12.7675442,0.0949720588 L12.7675442,1.23645441 C9.39118441,1.23645441 8.47553823,2.03485588 9.67771314,5.57169412 L13.5109085,17.2108456 L19.2905547,0.0949720588 L20.3778751,0.0949720588 L26.0425147,17.2108456" id="Fill-3"></path>
                        <path d="M45.4965397,25.5396074 C39.2027826,25.5396074 34.0524058,20.9186941 34.0524058,15.2702044 C34.0524058,9.67972794 39.2027826,5.05820882 45.4965397,5.05820882 C51.7910565,5.05820882 56.9408256,9.67972794 56.9408256,15.2702044 C56.9408256,20.9186941 51.7910565,25.5396074 45.4965397,25.5396074 L45.4965397,25.5396074 Z M45.4965397,6.82753676 C40.2326757,6.82753676 38.4012314,11.5623559 38.4012314,15.2702044 C38.4012314,19.0360662 40.2326757,23.7142353 45.4965397,23.7142353 C50.8185907,23.7142353 52.6494273,19.0360662 52.6494273,15.2702044 C52.6494273,11.5623559 50.8185907,6.82753676 45.4965397,6.82753676 L45.4965397,6.82753676 Z" id="Fill-4"></path>
                        <path d="M115.418971,23.6569794 L115.418971,24.7977044 L102.315674,24.7977044 L102.315674,23.6569794 C106.149477,23.6569794 106.836174,22.6874162 106.836174,16.9816706 L106.836174,7.85435588 C106.836174,2.14876176 106.149477,1.23645441 102.315674,1.23645441 L102.315674,0.0949720588 L114.159976,0.0949720588 C120.053717,0.0949720588 123.31583,3.11908235 123.31583,7.16986029 C123.31583,11.1062779 120.053717,14.1867353 114.159976,14.1867353 L110.898471,14.1867353 L110.898471,16.9816706 C110.898471,22.6874162 111.585015,23.6569794 115.418971,23.6569794 L115.418971,23.6569794 Z M114.159976,2.14876176 L110.898471,2.14876176 L110.898471,12.0756897 L114.159976,12.0756897 C117.36451,12.0756897 118.85215,9.85088971 118.85215,7.16986029 C118.85215,4.431575 117.36451,2.14876176 114.159976,2.14876176 L114.159976,2.14876176 Z" id="Fill-5"></path>
                        <path d="M162.625263,19.4356456 L162.339342,20.4624647 C161.82432,22.3450926 161.194595,23.0295882 157.132146,23.0295882 L156.330747,23.0295882 C153.35577,23.0295882 152.840748,22.3450926 152.840748,18.2941632 L152.840748,15.6703897 C157.30382,15.6703897 157.647168,16.0693632 157.647168,19.0360662 L158.734489,19.0360662 L158.734489,10.5355368 L157.647168,10.5355368 C157.647168,13.5022397 157.30382,13.9010618 152.840748,13.9010618 L152.840748,7.51218382 L155.987398,7.51218382 C160.050455,7.51218382 160.679572,8.19683088 161.194595,10.0793074 L161.480972,11.1627765 L162.396162,11.1627765 L161.995994,5.80071765 L145.17299,5.80071765 L145.17299,6.88418676 C148.377067,6.88418676 148.891938,7.56868235 148.891938,11.6196118 L148.891938,18.9221603 C148.891938,22.6274338 148.454245,23.5609471 145.928204,23.6939382 C143.527044,23.3285912 141.878517,22.0226118 139.623204,19.5495515 L136.990969,16.6973603 C140.539002,16.0693632 142.427114,13.8445632 142.427114,11.3339382 C142.427114,8.19683088 139.738059,5.80071765 134.702537,5.80071765 L124.631644,5.80071765 L124.631644,6.88418676 C127.835722,6.88418676 128.350593,7.56868235 128.350593,11.6196118 L128.350593,18.9221603 C128.350593,22.9724838 127.835722,23.7142353 124.631644,23.7142353 L124.631644,24.7977044 L136.018351,24.7977044 L136.018351,23.7142353 C132.814425,23.7142353 132.299402,22.9724838 132.299402,18.9221603 L132.299402,16.8685221 L133.271868,16.8685221 L139.623204,24.7977044 L163.140134,24.7977044 L163.483482,19.4356456 L162.625263,19.4356456 L162.625263,19.4356456 Z M132.299402,15.0990426 L132.299402,7.51218382 L134.645109,7.51218382 C137.22007,7.51218382 138.364818,9.28014853 138.364818,11.3339382 C138.364818,13.3310779 137.22007,15.0990426 134.645109,15.0990426 L132.299402,15.0990426 L132.299402,15.0990426 Z" id="Fill-6"></path>
                        <path d="M174.241071,25.5396074 C171.952184,25.5396074 169.949065,24.341475 169.090695,23.5997235 C168.804926,23.8853971 168.289903,24.7412059 168.175656,25.5396074 L167.088336,25.5396074 L167.088336,17.6669235 L168.232324,17.6669235 C168.690679,21.4321794 171.322307,23.6569794 174.698667,23.6569794 C176.529351,23.6569794 178.017599,22.6301603 178.017599,20.9186941 C178.017599,19.4356456 176.701025,18.2941632 174.355318,17.2108456 L171.093813,15.6703897 C168.804926,14.5857088 167.088336,12.7030809 167.088336,10.1932132 C167.088336,7.45492794 169.663144,5.11607059 173.211178,5.11607059 C175.099442,5.11607059 176.701025,5.80071765 177.674251,6.59911912 C177.96002,6.37070147 178.245941,5.74270441 178.418375,5.05820882 L179.505087,5.05820882 L179.505087,11.7907735 L178.303368,11.7907735 C177.902745,9.10913824 176.415256,6.88418676 173.382853,6.88418676 C171.78051,6.88418676 170.292262,7.79725147 170.292262,9.22365 C170.292262,10.7066985 171.493981,11.5051 174.241071,12.7603368 L177.387722,14.3006412 C180.134813,15.6125279 181.221525,17.7241794 181.221525,19.4356456 C181.221525,23.0295882 178.074419,25.5396074 174.241071,25.5396074" id="Fill-7"></path>
                        <path d="M191.543092,25.5396074 C189.254053,25.5396074 187.251086,24.341475 186.392716,23.5997235 C186.106947,23.8853971 185.591924,24.7412059 185.477677,25.5396074 L184.390205,25.5396074 L184.390205,17.6669235 L185.534345,17.6669235 C185.9927,21.4321794 188.624176,23.6569794 192.000688,23.6569794 C193.831372,23.6569794 195.31962,22.6301603 195.31962,20.9186941 C195.31962,19.4356456 194.003046,18.2941632 191.657339,17.2108456 L188.395834,15.6703897 C186.106947,14.5857088 184.390205,12.7030809 184.390205,10.1932132 C184.390205,7.45492794 186.965165,5.11607059 190.513199,5.11607059 C192.401463,5.11607059 194.003046,5.80071765 194.976272,6.59911912 C195.262041,6.37070147 195.547962,5.74270441 195.719636,5.05820882 L196.807108,5.05820882 L196.807108,11.7907735 L195.605389,11.7907735 C195.204614,9.10913824 193.717125,6.88418676 190.684874,6.88418676 C189.082531,6.88418676 187.594283,7.79725147 187.594283,9.22365 C187.594283,10.7066985 188.79585,11.5051 191.543092,12.7603368 L194.689743,14.3006412 C197.436834,15.6125279 198.523546,17.7241794 198.523546,19.4356456 C198.523546,23.0295882 195.376288,25.5396074 191.543092,25.5396074" id="Fill-8"></path>
                    </g>
                    <g id="W-Mark">
                        <path d="M25.8245037,1.61482794 C29.0928456,1.61482794 32.2624368,2.25267059 35.2456172,3.51063382 C36.6794763,4.11530441 38.0625927,4.86387206 39.3565297,5.73543382 C40.6386167,6.59896765 41.8441339,7.59064559 42.939962,8.68305147 C44.0356382,9.77545735 45.0302849,10.9775279 45.8964038,12.2557882 C46.7705747,13.5457118 47.5213833,14.9248515 48.1278641,16.3544309 C49.3895932,19.3285559 50.0293453,22.4888382 50.0293453,25.747425 C50.0293453,29.0060118 49.3895932,32.1662941 48.1278641,35.1404191 C47.5213833,36.57015 46.7705747,37.9491382 45.8964038,39.2390618 C45.0302849,40.5173221 44.0356382,41.7193926 42.939962,42.8117985 C41.8441339,43.9042044 40.6386167,44.8958824 39.3565297,45.7594162 C38.0625927,46.6309779 36.6794763,47.3795456 35.2456172,47.9842162 C32.2624368,49.2421794 29.0928456,49.8800221 25.8245037,49.8800221 C22.5561619,49.8800221 19.3864188,49.2421794 16.4033903,47.9842162 C14.9693793,47.3795456 13.5862629,46.6309779 12.2923258,45.7594162 C11.0103908,44.8958824 9.80472164,43.9042044 8.70904548,42.8117985 C7.61336932,41.7193926 6.61857071,40.5173221 5.75245177,39.2390618 C4.87843278,37.9491382 4.12762419,36.57015 3.52114343,35.1404191 C2.25941429,32.1662941 1.61966217,29.0060118 1.61966217,25.747425 C1.61966217,22.4888382 2.25941429,19.3285559 3.52114343,16.3544309 C4.12762419,14.9248515 4.87843278,13.5457118 5.75245177,12.2557882 C6.61857071,10.9775279 7.61336932,9.77545735 8.70904548,8.68305147 C9.80472164,7.59064559 11.0103908,6.59896765 12.2923258,5.73543382 C13.5862629,4.86387206 14.9693793,4.11530441 16.4033903,3.51063382 C19.3864188,2.25267059 22.5561619,1.61482794 25.8245037,1.61482794 M25.8245037,0.0743720588 C11.6031984,0.0743720588 0.0745947026,11.5685662 0.0745947026,25.747425 C0.0745947026,39.9262838 11.6031984,51.4204779 25.8245037,51.4204779 C40.0456572,51.4204779 51.5742609,39.9262838 51.5742609,25.747425 C51.5742609,11.5685662 40.0456572,0.0743720588 25.8245037,0.0743720588" id="Fill-9"></path>
                        <path d="M4.36629685,25.7466676 C4.36629685,34.2144794 9.30170115,41.5330838 16.4605137,45.0005485 L6.22432784,17.0399868 C5.03369915,19.7004162 4.36629685,22.6448529 4.36629685,25.7466676 L4.36629685,25.7466676 Z M40.3104608,24.6675912 C40.3104608,22.0227632 39.3577451,20.1922412 38.5416092,18.7676603 C37.4536812,17.0045426 36.4336632,15.5128603 36.4336632,13.7498941 C36.4336632,11.7835029 37.9293553,9.95298088 40.0371494,9.95298088 C40.1324058,9.95298088 40.2224968,9.96434118 40.3150185,9.97024853 C36.4973193,6.48263824 31.4109025,4.35326471 25.8245037,4.35326471 C18.3275082,4.35326471 11.7324858,8.1885 7.89549225,13.9958824 C8.39942429,14.0117868 8.87403498,14.0217838 9.27663368,14.0217838 C11.5205517,14.0217838 14.9956622,13.7498941 14.9956622,13.7498941 C16.1518041,13.6823382 16.2885357,15.3766882 15.1328496,15.5128603 C15.1328496,15.5128603 13.970023,15.6485779 12.6771494,15.7161338 L20.4910585,38.8899221 L25.1876382,24.8485985 L21.8445497,15.7161338 C20.6885597,15.6485779 19.593947,15.5128603 19.593947,15.5128603 C18.4371974,15.4446985 18.5727136,13.6823382 19.730071,13.7498941 C19.730071,13.7498941 23.2729395,14.0217838 25.3813413,14.0217838 C27.6254113,14.0217838 31.1011294,13.7498941 31.1011294,13.7498941 C32.2577271,13.6823382 32.3938511,15.3766882 31.2377091,15.5128603 C31.2377091,15.5128603 30.0738191,15.6485779 28.782009,15.7161338 L36.5368196,38.7134588 L38.7505047,31.7199103 C39.734061,28.6636882 40.3104608,26.4982647 40.3104608,24.6675912 L40.3104608,24.6675912 Z M26.2014273,27.6179353 L19.7622789,46.2698721 C21.6853333,46.8339485 23.7183808,47.1415853 25.8245037,47.1415853 C28.3233503,47.1415853 30.7204078,46.7115603 32.9506527,45.9286088 C32.8932254,45.8371206 32.8403558,45.7398765 32.7967536,45.6336956 L26.2014273,27.6179353 L26.2014273,27.6179353 Z M44.6547286,15.4833235 C44.7467946,16.1646382 44.7990565,16.8956353 44.7990565,17.6831309 C44.7990565,19.85325 44.3911404,22.2937441 43.1667846,25.3455735 L36.6129335,44.2381971 C42.9925277,40.5300456 47.2827106,33.6391941 47.2827106,25.7466676 C47.2827106,22.0270044 46.3292354,18.5303059 44.6547286,15.4833235 L44.6547286,15.4833235 Z" id="Fill-10"></path>
                    </g>
                </g>
            </g>
        </g>
    </g>
</svg>