<?xml version="1.0" encoding="utf-8"?>
<!-- Generator: Adobe Illustrator 21.1.0, SVG Export Plug-In . SVG Version: 6.00 Build 0)  -->
<svg version="1.1" id="Layer_1" xmlns="http://www.w3.org/2000/svg" xmlns:xlink="http://www.w3.org/1999/xlink" x="0px" y="0px"
	 viewBox="0 0 1288 150" enable-background="new 0 0 1288 150" xml:space="preserve">
<path fill="#32B2CB" d="M328.5,47.7c-15.3,1.7-26.4,15.6-24.7,30.9c1.7,15.3,15.6,26.4,30.9,24.7c15.3-1.7,26.4-15.6,24.7-30.9
	C357.7,57,343.8,46,328.5,47.7z M306.6,78.4c-0.4-3.6,0-7.2,1-10.4l15.6,31.3C314.4,96.1,307.7,88.2,306.6,78.4z M334.4,100.5
	c-2.5,0.3-4.9,0.2-7.2-0.2l5-22.6l10.1,20.2c0.1,0.1,0.1,0.2,0.2,0.3C340.1,99.4,337.3,100.2,334.4,100.5z M333.7,63.4
	c1.5-0.2,2.8-0.6,2.8-0.6c1.3-0.3,0.9-2.3-0.4-2c0,0-4,0.8-6.6,1.1c-2.5,0.3-6.6,0.4-6.6,0.4c-1.4,0.1-1.3,2.2,0.1,2.1
	c0,0,1.3,0,2.6-0.1l5.1,10.2l-3.6,17l-12.2-26c1.5-0.2,2.8-0.6,2.8-0.6c1.3-0.3,0.9-2.3-0.4-2c0,0-4,0.8-6.6,1.1
	c-0.5,0.1-1,0.1-1.6,0.2c3.7-7.3,10.9-12.6,19.6-13.6c6.5-0.7,12.7,1.1,17.6,4.7c-0.1,0-0.2,0-0.3,0c-2.5,0.3-4,2.6-3.7,4.9
	c0.2,2.1,1.6,3.7,3.1,5.6c1.1,1.6,2.5,3.6,2.8,6.7c0.2,2.1-0.3,4.7-1,8.3l-1.6,8.6L333.7,63.4z M352.2,61c2.4,3.3,3.9,7.3,4.4,11.6
	c1,9.2-3,17.8-10,23l5.1-22.9c1-3.7,1.2-6.6,0.9-9.2C352.5,62.7,352.4,61.8,352.2,61z"/>
<path fill="#C41981" d="M973.2,48.6c-14.9-4.2-30.3,4.5-34.5,19.4c-4.2,14.9,4.5,30.3,19.4,34.5c14.9,4.2,30.3-4.5,34.5-19.4
	C996.7,68.2,988,52.8,973.2,48.6z M941.4,68.7c1-3.5,2.7-6.6,4.9-9.3l2.7,34.9C941.9,88.2,938.7,78.3,941.4,68.7z M958.8,99.7
	c-2.4-0.7-4.6-1.7-6.6-2.9l13.2-19.1l1.7,22.5c0,0.1,0,0.3,0.1,0.4C964.5,100.8,961.6,100.5,958.8,99.7z M972.1,65.1
	c1.5,0.3,2.8,0.5,2.8,0.5c1.3,0.2,1.7-1.7,0.4-2c0,0-4-0.8-6.5-1.5c-2.4-0.7-6.3-2.1-6.3-2.1c-1.3-0.4-2,1.5-0.7,2
	c0,0,1.2,0.5,2.5,0.9l0.9,11.4l-9.8,14.4L954,60c1.5,0.3,2.8,0.5,2.8,0.5c1.3,0.2,1.7-1.7,0.4-2c0,0-4-0.8-6.5-1.5
	c-0.5-0.1-1-0.3-1.6-0.5c6.2-5.4,14.8-7.6,23.3-5.2c6.3,1.8,11.4,5.8,14.6,11c-0.1,0-0.2-0.1-0.3-0.1c-2.4-0.7-4.6,0.9-5.3,3.2
	c-0.6,2,0.1,4,0.8,6.3c0.5,1.9,1,4.2,0.1,7.2c-0.6,2.1-2.1,4.3-4,7.3l-4.7,7.4L972.1,65.1z M990.1,69.9c0.9,4,0.9,8.2-0.3,12.5
	c-2.5,8.9-9.5,15.4-17.9,17.6l13.4-19.3c2.4-3.1,3.6-5.7,4.3-8.2C989.8,71.5,990,70.7,990.1,69.9z"/>
<polygon fill="#ECBF1D" points="203.1,79.9 203,64.1 182.2,63.4 181.4,42.6 165.8,42.6 165.8,33.1 190.6,33 191.4,54.2 212.5,54.9 
	212.6,79.8 "/>
<polygon fill="#F8A16C" points="431.8,57.6 417.4,52.1 409.4,70.8 390.3,64 384.7,78.2 376,74.8 384.9,52.3 404.3,59.1 412.5,40.2 
	435.1,49 "/>
<path fill="#8BC43F" d="M649.4,47.6c-15.4-0.4-28.3,11.8-28.7,27.2c-0.4,15.4,11.8,28.3,27.2,28.7c15.4,0.4,28.3-11.8,28.7-27.2
	C677,60.9,664.8,48,649.4,47.6z M623.5,74.8c0.1-3.6,1-7.1,2.5-10.2L637,97.9C628.7,93.6,623.2,84.8,623.5,74.8z M647.9,100.7
	c-2.5-0.1-4.8-0.5-7.1-1.2l8.1-21.7l7.2,21.4c0,0.1,0.1,0.2,0.2,0.4C653.7,100.3,650.9,100.7,647.9,100.7z M652.4,63.8
	c1.5,0,2.9-0.2,2.9-0.2c1.4-0.1,1.3-2.1-0.1-2.1c0,0-4.1,0.2-6.7,0.1c-2.5-0.1-6.6-0.5-6.6-0.5c-1.4-0.1-1.6,2-0.2,2.1
	c0,0,1.3,0.2,2.6,0.3l3.6,10.8l-5.9,16.4l-8.4-27.5c1.5,0,2.9-0.2,2.9-0.2c1.4-0.1,1.3-2.1-0.1-2.1c0,0-4.1,0.2-6.7,0.1
	c-0.5,0-1,0-1.6-0.1c4.7-6.7,12.5-11,21.3-10.8c6.5,0.2,12.4,2.8,16.8,7.1c-0.1,0-0.2,0-0.3,0c-2.5-0.1-4.3,2-4.3,4.3
	c-0.1,2.1,1.1,3.9,2.3,6c0.9,1.7,2,3.9,1.9,7c-0.1,2.2-1,4.6-2.1,8.1l-2.7,8.3L652.4,63.8z M671,64.1c1.9,3.6,2.9,7.8,2.8,12.1
	c-0.2,9.3-5.5,17.2-13.1,21.4l8.3-22c1.5-3.5,2.1-6.4,2.2-9C671.1,65.7,671.1,64.9,671,64.1z"/>
<rect x="233.3" y="59.5" transform="matrix(0.3706 -0.9288 0.9288 0.3706 85.0085 265.0584)" fill="#EE6723" width="9.5" height="20.7"/>
<rect x="424.7" y="87" transform="matrix(0.8064 -0.5914 0.5914 0.8064 29.9458 275.0788)" fill="#C41981" width="20.7" height="9.5"/>
<rect x="222.4" y="102.9" transform="matrix(0.9451 -0.3267 0.3267 0.9451 -21.1546 89.3763)" fill="#C41981" width="66.2" height="9.5"/>
<rect x="269.5" y="47.9" transform="matrix(0.7346 -0.6785 0.6785 0.7346 38.5961 202.4052)" fill="#4D2E89" width="17.1" height="7.9"/>
<polygon fill="#ECBF1D" points="478.6,41.5 472.2,55.4 490.3,64.6 482.4,83.3 496.2,89.7 492.3,98.2 470.3,88 478.4,69 460,59.7 
	470.2,37.6 "/>
<polygon fill="#EE6723" points="582.6,66.1 582.7,81.9 603.5,82.6 604.2,103.4 619.9,103.4 619.9,112.9 595,112.9 594.3,91.8 
	573.2,91.1 573,66.2 "/>
<rect x="592.7" y="44" transform="matrix(0.8064 -0.5914 0.5914 0.8064 87.9039 366.1078)" fill="#ECBF1D" width="20.7" height="9.5"/>
<rect x="501.4" y="93.9" transform="matrix(0.6006 -0.7996 0.7996 0.6006 134.5905 466.7432)" fill="#4D2E89" width="66.2" height="9.5"/>
<rect x="509.3" y="36.5" transform="matrix(0.3706 -0.9288 0.9288 0.3706 280.0818 506.928)" fill="#32B2CB" width="9.5" height="20.7"/>
<polygon fill="#C41981" points="1127.1,79.9 1112.7,73.5 1120.5,54.1 1101.7,45.1 1108,30.8 1099.3,26.9 1089.3,49.6 1108.3,58.8 
	1100.4,78.4 1123.2,88.6 "/>
<polygon fill="#EE6723" points="930.8,97.1 918.6,101 912.7,85.1 896.5,89.9 892.5,77.8 885.1,80.2 891.5,99.4 908,94.6 
	913.9,110.7 933.2,104.5 "/>
<rect x="1076.2" y="106" transform="matrix(0.9288 -0.3706 0.3706 0.9288 36.3121 410.5919)" fill="#F8A16C" width="20.7" height="9.5"/>
<rect x="996.1" y="102.9" transform="matrix(0.8244 -0.566 0.566 0.8244 119.801 601.4553)" fill="#32B2CB" width="66.2" height="9.5"/>
<rect x="1012.7" y="43.3" transform="matrix(0.6785 -0.7346 0.7346 0.6785 288.7715 763.5132)" fill="#8BC43F" width="7.9" height="17.1"/>
<rect x="841.1" y="56.9" transform="matrix(0.8404 -0.5419 0.5419 0.8404 106.0901 483.5988)" fill="#ECBF1D" width="66.2" height="9.5"/>
<polygon fill="#8BC43F" points="74.9,89.1 61.3,82.2 69.8,63.7 52,54 58.9,40.4 50.6,36.2 39.7,57.8 57.7,67.7 49.1,86.4 70.7,97.4 
	"/>
<rect x="95.1" y="63.6" transform="matrix(0.7667 -0.642 0.642 0.7667 -19.2804 83.6508)" fill="#C41981" width="20.7" height="9.5"/>
<polygon fill="#8BC43F" points="807.4,68.2 804.9,53.1 824.8,49 822,28.9 837,26.3 835.5,17.1 811.6,21.2 814.4,41.6 794.3,45.8 
	798.3,69.8 "/>
<rect x="689.8" y="35.5" transform="matrix(0.2226 -0.9749 0.9749 0.2226 495.3406 712.7749)" fill="#4D2E89" width="9.5" height="20.7"/>
<rect x="748.4" y="44.5" transform="matrix(0.8464 -0.5325 0.5325 0.8464 74.3232 413.019)" fill="#C41981" width="9.5" height="66.2"/>
<rect x="707.2" y="93" transform="matrix(0.2485 -0.9686 0.9686 0.2485 444.5201 768.5735)" fill="#ECBF1D" width="20.7" height="9.5"/>
<rect x="108.4" y="96.9" transform="matrix(0.8339 -0.5519 0.5519 0.8339 -32.6092 94.9579)" fill="#4D2E89" width="66.2" height="9.5"/>
<rect x="128.8" y="25.1" transform="matrix(0.6785 -0.7346 0.7346 0.6785 17.8315 108.4694)" fill="#F8A16C" width="8.1" height="17.5"/>
<polygon fill="#ECBF1D" points="1170.4,65.7 1182.8,56.7 1195.5,72.6 1212.2,61.1 1221.2,73.3 1228.7,67.8 1214.3,48.3 1197.3,60 
	1184.6,43.9 1164.9,58.2 "/>
<rect x="1251.8" y="59.4" transform="matrix(0.9837 -0.1796 0.1796 0.9837 7.9029 226.7929)" fill="#C41981" width="9.5" height="20.7"/>
<rect x="1211.7" y="68.3" transform="matrix(0.2795 -0.9602 0.9602 0.2795 779.1107 1241.136)" fill="#F8A16C" width="9.5" height="66.2"/>
<rect x="1151.1" y="87.7" transform="matrix(0.6577 -0.7533 0.7533 0.6577 322.7539 903.2141)" fill="#8BC43F" width="8.1" height="17.5"/>
<rect x="829.3" y="88.5" transform="matrix(0.1393 -0.9902 0.9902 0.1393 620.0197 910.9801)" fill="#F8A16C" width="9.5" height="20.7"/>
<rect x="11.7" y="76.3" transform="matrix(0.6785 -0.7346 0.7346 0.6785 -57.3199 38.7634)" fill="#32B2CB" width="7.9" height="17.1"/>
</svg>
