<svg xmlns="http://www.w3.org/2000/svg" viewBox="0 0 400 400">
	<path fill="none" d="M-1.9 146.9l1.9-2v-15.3zM192.6 0h2.2l-.5-2.9c-.6.9-1.2 1.9-1.7 2.9zM220.9-.1l.8.1c-.2 0-.5-.1-.8-.1z" />
	<path fill="#77E8F7" d="M85.78 287.793l3.605-10.815 74.852 24.948-3.604 10.815z" />
	<path fill="#B4EF56" d="M52 14.5l6.4-9.4L50.9 0H32.1l-.5.7z" />
	<path fill="#4D2E89" d="M335.452 63.967l18.484-16.233 7.523 8.565-18.485 16.234z" />
	<path fill="#ECBF1D" d="M334.58 249.405l2.895-11.026 23.793 6.246-2.894 11.026z" />
	<path fill="#C41981" d="M65.9 180.8l19.3 15.5 16.8-18.2 14.3 12.1 7.4-8.6-22.6-19.3L84 180.8l-19.6-15.7-19.3 22.5 8.6 7.4zM352.95 183.84l9.582-6.177 13.331 20.676-9.581 6.178z" />
	<path fill="#EE6723" d="M75.445 360.66l18.071-16.691 7.735 8.374-18.071 16.692z" />
	<path fill="#B4EF56" d="M119.6 226.5c-2.5 15.4 7.9 30 23.3 32.5s30-7.9 32.5-23.3-7.9-30-23.3-32.5-30 7.9-32.5 23.3zm2.8.5c.6-3.6 1.9-7 3.9-9.9l6.6 34.8c-7.8-5.4-12.1-15-10.5-24.9zm21 29.2c-2.5-.4-4.8-1.2-6.9-2.2l11.1-20.6 4.2 22.4c0 .1.1.3.1.4-2.7.5-5.6.5-8.5 0zm27.9-30.9c.2-.9.2-1.8.3-2.6 1.4 3.9 1.8 8.2 1.1 12.5-1.5 9.3-7.9 16.5-16 19.6l11.3-20.9c1.9-3.3 2.8-6.1 3.3-8.6zm-3.8-9.9c-.1 0-.2-.1-.3-.1-2.5-.4-4.6 1.5-4.9 3.8-.3 2.1.6 4 1.5 6.3.7 1.8 1.4 4.2.9 7.3-.4 2.1-1.6 4.5-3.2 7.8l-3.9 8L153 220c1.5.2 2.9.2 2.9.2 1.4.1 1.5-2 .2-2.1 0 0-4.1-.3-6.7-.8-2.5-.4-6.6-1.4-6.6-1.4-1.3-.3-1.8 1.7-.5 2 0 0 1.3.4 2.6.7l2.2 11.4-8.2 15.6-4.7-28.7c1.5.2 2.9.2 2.9.2 1.4.1 1.5-2 .2-2.1 0 0-4.1-.3-6.7-.8-.5-.1-1-.2-1.6-.3 5.6-6.1 14.1-9.3 22.8-7.9 6.4 1.1 11.9 4.6 15.7 9.4z" />
	<path fill="#77E8F7" d="M315.438 348.55l18.07-16.69 7.736 8.374-18.072 16.691z" />
	<path fill="#4D2E89" d="M279.6 236.2l23.4 9.1 11.6-27.2-10.4-4.5-7.3 17.2-23.1-9-10.6 22.5-17.3-7.3-4.4 10.5 27.4 11.5z" />
	<path fill="#B4EF56" d="M45.63 306.633l6.907-9.068 19.57 14.905-6.908 9.069z" />
	<path fill="#F8A16C" d="M58.175 95.194L81.2 86.533l4.014 10.67-23.025 8.662zM165.758 52.963l10.905-3.322 22.992 75.475-10.905 3.322z" />
	<path fill="#C41981" d="M52.8 350.2L0 332.6v12L49.2 361z" />
	<path fill="#EE6723" d="M28.9 252.3l20.9-20.9-8-8-13.2 13.1-18.1-16.9L0 229.4v15.5l10.5-9.7z" />
	<path fill="#F8A16C" d="M4 119c1.3.4 2-1.5.7-2 0 0-2.5-.9-4.7-1.9v14.4L1.2 118c1.5.6 2.8 1 2.8 1z" />
	<path fill="#F8A16C" d="M36.1 147.2c6.5-14.2.3-31-13.9-37.5-7.3-3.4-15.3-3.3-22.2-.6v3.1c6.5-2.9 14.1-3.1 21 .1 6 2.8 10.4 7.6 12.8 13.2-.1-.1-.2-.1-.3-.2-2.3-1-4.8.2-5.8 2.3-.9 1.9-.5 4-.2 6.5.2 1.9.3 4.4-1 7.2-.9 2-2.7 3.9-5.2 6.7l-5.8 6.6 3.1-28.7c1.4.6 2.7 1 2.7 1 1.3.4 2-1.5.7-2 0 0-3.9-1.4-6.3-2.5-2.3-1-5.9-3.1-5.9-3.1-1.2-.6-2.2 1.2-1 1.8 0 0 1.1.7 2.3 1.3l-.9 11.5-10.2 11v3l9.9-10.3L8 160.3v.4c-2.7-.3-5.4-1-8.1-2.1v3.1c14 5.5 29.9-.8 36.2-14.5zm-6.8-3.7c2.8-2.7 4.5-5.1 5.6-7.5.4-.9.7-1.7.9-2.4.3 4.1-.4 8.4-2.3 12.4-3.9 8.5-12 13.8-20.7 14.7l16.5-17.2z" />
	<path fill="#77E8F7" d="M54.8 37.2L0 56.4v12L58.5 48z" />
	<path fill="#C41981" d="M377.9 325.3l-3.5 10.7 25.6 8.6v-12z" />
	<path fill="#EE6723" d="M379 223.3l-8 8.1 21.1 20.9 7.9-7.4v-15.5l-7.7 7.1z" />
	<path fill="#F8A16C" d="M384.7 123.5c-6.5 14.2-.3 31 13.9 37.5.5.2.9.4 1.4.6v-3.1c-.1 0-.2-.1-.2-.1-2.3-1-4.3-2.4-6.1-3.9l6.3-6.6v-3l-1.9 2 1.9-17.4v-14.4c-.6-.2-1.1-.5-1.6-.7-.4-.2-.9-.4-1.5-.7 1-.6 2-1.1 3.1-1.6V109c-6.5 2.7-12.1 7.7-15.3 14.5zm8.9-7.2l-2.9 35.3c-6-7.3-7.7-17.6-3.5-26.8 1.6-3.4 3.8-6.3 6.4-8.5z" />
	<path fill="#77E8F7" d="M384 74l16-5.6v-12l-19.7 6.8z" />
	<path fill="#B4EF56" d="M274.1 44l23.7 7.4 9-23.1 17.7 6.1 3.8-10.7-28.1-9.7-9.2 23.4-24-7.6-9.8 27.9 10.7 3.8z" />
	<path fill="#EE6723" d="M118.843 51.962l18.072-16.691 7.734 8.374-18.07 16.691z" />
	<path fill="#C41981" d="M210.9 39c15.4 2.5 30-7.9 32.5-23.3.9-5.5.1-10.9-1.9-15.7h-11.3c0 1.7.8 3.4 1.6 5.4.7 1.8 1.4 4.2.9 7.3-.4 2.1-1.6 4.5-3.2 7.8l-3.9 8L220.9 0H213l1.9 9.9-8.2 15.6L202.6 0h-7.8l6 31.9c-7.7-5.4-12.1-15-10.4-24.9.4-2.5 1.2-4.8 2.2-7h-3.1c-.9 2.1-1.5 4.2-1.9 6.5-2.5 15.4 7.9 30 23.3 32.5zm25-25c2-3.3 3-6.1 3.4-8.7.2-.9.2-1.8.3-2.6 1.4 3.9 1.8 8.2 1.1 12.5-1.5 9.3-7.9 16.5-16 19.6L235.9 14zm-20.3-.6l4.2 22.4c0 .1.1.3.1.4-2.8.5-5.6.5-8.6.1-2.5-.4-4.8-1.2-6.9-2.2l11.2-20.7z" />
	<path fill="#C41981" d="M223.8.2c.2 0 .4-.1.6-.2h-2.7c1.2.1 2.1.2 2.1.2z" />
	<path fill="#77E8F7" d="M215.43 77.562l18.072-16.691 7.735 8.374-18.071 16.692z" />
	<path fill="#ECBF1D" d="M22.274 276.144l65.984-43.261 6.25 9.534-65.983 43.26zM400.4 15.8l-.4-.9V16zM363 3l9.7 23.2L400 16v-1.1l-3.6-9.7-17.5 6.5L374.1 0H335l4.2 11zM163 17.8l6.9-9.1L158.5 0h-12.9l-2.1 2.9z" />
	<path fill="#4D2E89" d="M79.6 33.1l12.7 26.7 10.3-4.8-8-16.9 22-11.4L106.8 4l8.2-4H92.7l9.3 21.5z" />
	<path fill="#B4EF56" d="M32.1 400h18.8L38 391.3z" />
	<path fill="#C41981" d="M223.8 400.2c.2 0 .4-.1.6-.2h-2.7c1.2.1 2.1.2 2.1.2zM220.1 383.2c-13.1-2.2-25.6 5.1-30.6 16.8h3.1c.5-1 1-2 1.6-2.9l.5 2.9h7.8l-.5-3.2c1.5.2 2.9.2 2.9.2 1.4.1 1.5-2 .2-2.1 0 0-4.1-.3-6.7-.8-.5-.1-1-.2-1.6-.3 5.6-6.1 14.1-9.3 22.8-7.9 6.5 1.1 12.1 4.5 15.9 9.4-.1 0-.2-.1-.3-.1-2.5-.4-4.6 1.5-4.9 3.8-.1.3-.1.6-.1.9h11.3c-3.7-8.5-11.5-15.1-21.4-16.7z" />
	<path fill="#C41981" d="M221.7 400h2.7c.8-.4.7-1.8-.4-1.9 0 0-4.1-.3-6.7-.8-2.5-.4-6.6-1.4-6.6-1.4-1.3-.3-1.8 1.7-.5 2 0 0 1.3.4 2.6.7l.3 1.4h7.9v-.1c.2 0 .5.1.7.1z" />
	<path fill="#ECBF1D" d="M345.9 396.8l-6.7-17.6-10.6 4.1L335 400h39.1l-4.7-11.1zM145.6 400h12.9l-8.2-6.2z" />
	<path fill="#4D2E89" d="M118.8 385.6L92 398.5l.7 1.5H115l8.7-4.2zM251.2 306.9c-14.6 5.4-22.2 21.7-16.8 36.3 5.4 14.6 21.7 22.2 36.3 16.8 14.6-5.4 22.2-21.7 16.8-36.3-5.4-14.7-21.6-22.2-36.3-16.8zm-14.1 35.3c-1.3-3.5-1.7-7-1.5-10.5l22.8 27c-9.3-.9-17.8-7.1-21.3-16.5zm32.6 15.1c-2.3.9-4.7 1.3-7.1 1.5l-.5-23.4 14.7 17.4.3.3c-2.1 1.7-4.6 3.2-7.4 4.2zm-9.6-36.3c1.4-.6 2.6-1.2 2.6-1.2 1.2-.6.4-2.5-.9-1.9 0 0-3.8 1.7-6.3 2.6-2.3.9-6.4 2-6.4 2-1.3.4-.7 2.4.6 2 0 0 1.3-.3 2.6-.7l7.5 8.8.5 17.6-18.2-22.7c1.4-.6 2.6-1.2 2.6-1.2 1.2-.6.4-2.5-.9-1.9 0 0-3.8 1.7-6.3 2.6-.4.2-1 .3-1.5.5 1.9-8 7.7-15 16-18.1 6.2-2.3 12.7-2 18.4.3-.1 0-.2.1-.3.1-2.3.9-3.3 3.5-2.5 5.7.7 2 2.5 3.2 4.4 4.7 1.5 1.3 3.3 2.9 4.4 5.9.8 2 .8 4.7 1 8.4l.5 8.8-17.8-22.3zm20.5 28.7l-.5-23.8c.1-3.9-.4-6.8-1.3-9.2-.3-.9-.7-1.7-1.1-2.4 3.1 2.7 5.6 6.2 7.1 10.4 3.3 8.8 1.3 18.2-4.2 25z" />
	<path fill="#C41981" d="M114.656 327.328l8.688-7.382 15.928 18.748-8.688 7.381z" />
	<path fill="#B4EF56" d="M350.5 302.6l-9.5-22.9-23.5 7.9-6.7-17.6-10.6 4.1 10.6 27.7 23.8-8 9.6 23.3 27.7-10.4-4-10.7z" />
	<path fill="#C41981" d="M192.983 272.788l19.478-15.025 6.963 9.026-19.478 15.026z" />
	<path fill="#ECBF1D" d="M175.18 163.194l23.025-8.661 4.014 10.67-23.026 8.662z" />
	<path fill="#EE6723" d="M201.778 210.617l24.519-1.998.926 11.362-24.52 1.998z" />
	<path fill="#ECBF1D" d="M270.7 195.2c15.6 0 28.3-12.7 28.3-28.3 0-15.6-12.7-28.3-28.3-28.3-15.6 0-28.3 12.7-28.3 28.3 0 15.6 12.7 28.3 28.3 28.3zm0-2.9c-2.5 0-4.9-.4-7.2-1l7.6-22.2 7.8 21.4c.1.1.1.2.2.4-2.6.9-5.5 1.4-8.4 1.4zm20.5-25.9c1.5-3.6 1.9-6.5 1.9-9.1 0-.9-.1-1.8-.2-2.6 2 3.6 3.1 7.8 3.1 12.2 0 9.4-5.1 17.6-12.6 22l7.8-22.5zm-20.5-25c6.6 0 12.7 2.5 17.2 6.7h-.3c-2.5 0-4.3 2.2-4.3 4.5 0 2.1 1.2 3.9 2.5 6 1 1.7 2.1 3.9 2.1 7 0 2.2-.8 4.7-1.9 8.2l-2.5 8.5-9.2-27.3c1.5-.1 2.9-.2 2.9-.2 1.4-.2 1.2-2.2-.2-2.1 0 0-4.1.3-6.8.3-2.5 0-6.7-.3-6.7-.3-1.4-.1-1.5 2-.2 2.1 0 0 1.3.2 2.7.2l4 10.9-5.6 16.7-9.3-27.6c1.5-.1 2.9-.2 2.9-.2 1.4-.2 1.2-2.2-.2-2.1 0 0-4.1.3-6.8.3h-1.6c4.6-7 12.4-11.6 21.3-11.6zm-23.3 15.1l12.1 33.2c-8.5-4.1-14.3-12.8-14.3-22.9 0-3.6.8-7.1 2.2-10.3z" />
	<path fill="#B4EF56" d="M324.254 176.118l39.45-68.327 9.872 5.7-39.45 68.327z" />
	<path fill="#F8A16C" d="M198.6 304.1l2.5 18.4-24.4 4.3 2.6 24.6-18.6 2.7 1.6 11.3 29.4-4.3-2.6-25 24.8-4.3-4.1-29.3z" />
	<path fill="#77E8F7" d="M123.6 151.7c15.2 3.5 30.4-6 34-21.2 3.5-15.2-6-30.4-21.2-34-15.2-3.5-30.4 6-34 21.2-3.5 15.3 6 30.5 21.2 34zm.7-2.8c-2.4-.6-4.7-1.5-6.8-2.6l12.5-19.9 2.8 22.6c0 .1.1.3.1.4-2.9.4-5.8.2-8.6-.5zm30.2-31.6c1.1 4 1.3 8.3.3 12.6-2.1 9.1-8.9 16-17.3 18.6l12.7-20.1c2.2-3.2 3.4-5.9 3.9-8.4.2-1 .3-1.9.4-2.7zm-18.7-17.9c6.4 1.5 11.7 5.3 15.2 10.4-.1 0-.2-.1-.3-.1-2.4-.6-4.7 1.2-5.2 3.4-.5 2 .3 4 1.1 6.4.6 1.9 1.2 4.2.5 7.3-.5 2.1-1.9 4.4-3.7 7.6l-4.4 7.7-2.8-28.7c1.5.3 2.9.4 2.9.4 1.4.2 1.7-1.8.3-2.1 0 0-4.1-.6-6.7-1.2-2.4-.6-6.5-1.8-6.5-1.8-1.3-.4-1.9 1.6-.6 2 0 0 1.2.5 2.5.8l1.4 11.5-9.2 15-2.8-28.9c1.5.3 2.9.4 2.9.4 1.4.2 1.7-1.8.3-2.1 0 0-4.1-.6-6.7-1.2-.5-.1-1-.2-1.6-.4 6.1-5.7 14.7-8.4 23.4-6.4zm-30.6 19c.8-3.6 2.4-6.8 4.5-9.6L114 144c-7.3-6-11-15.8-8.8-25.6z" />
	<path fill="#EE6723" d="M292.1 99.4l17 18.6 22.5-19.1-7.3-8.7-14.2 12-16.7-18.3-19.5 15.4L261.7 85l-8.6 7.4 19.3 22.5z" />
</svg>
