<svg xmlns="http://www.w3.org/2000/svg" width="948" height="688">
	<rect width="100%" height="100%" fill="none" />
	<g>
		<g fill="#FFF">
			<path d="M69.3 210.2c0 70.7 41.1 131.9 100.7 160.8L84.8 137.4c-9.9 22.2-15.5 46.8-15.5 72.8zm299.4-9.1c0-22.1-7.9-37.4-14.7-49.3-9.1-14.7-17.6-27.2-17.6-41.9 0-16.4 12.5-31.7 30-31.7.8 0 1.5.1 2.3.1-31.8-29.1-74.2-46.9-120.7-46.9-62.4 0-117.4 32-149.3 80.5 4.2.1 8.1.2 11.5.2 18.7 0 47.6-2.3 47.6-2.3 9.6-.6 10.8 13.6 1.1 14.7 0 0-9.7 1.1-20.5 1.7l65.1 193.6 39.1-117.3-27.8-76.3c-9.6-.6-18.7-1.7-18.7-1.7-9.6-.6-8.5-15.3 1.1-14.7 0 0 29.5 2.3 47.1 2.3 18.7 0 47.6-2.3 47.6-2.3 9.6-.6 10.8 13.6 1.1 14.7 0 0-9.7 1.1-20.5 1.7l64.6 192.1 17.8-59.6c7.9-24.5 13.8-42.3 13.8-57.6z" />
			<path d="M251.2 225.8l-53.6 155.8c16 4.7 32.9 7.3 50.5 7.3 20.8 0 40.8-3.6 59.3-10.1-.5-.8-.9-1.6-1.3-2.5l-54.9-150.5zm153.6-101.4c.8 5.7 1.2 11.8 1.2 18.4 0 18.1-3.4 38.5-13.6 64l-54.6 157.8c53.1-31 88.9-88.5 88.9-154.5 0-31-7.9-60.2-21.9-85.7z" />
			<path d="M248 1.8C133.1 1.8 39.7 95.2 39.7 210.1S133.2 418.4 248 418.4c114.9 0 208.3-93.5 208.3-208.3C456.4 95.3 362.9 1.8 248 1.8zm0 407.1c-109.6 0-198.8-89.2-198.8-198.8 0-109.6 89.2-198.8 198.8-198.8 109.6 0 198.8 89.2 198.8 198.8 0 109.7-89.2 198.8-198.8 198.8zM640.8 348.8l-33.4-3.6-8-.9V58.5c0-5.6-5.1-9.8-10.6-8.8l-99.6 18.2c-4.3.8-7.3 4.5-7.3 8.8V81c0 4.9 4 8.9 8.9 8.9h.1c36.8.9 44 9 44 41.7v212.6l-8 .9-16.2 1.8-16.2 1.8c-4.5.5-8 4.3-8 8.9v4.1c0 4.9 4 9 9 9 0 0 24.5-4.3 72.5-4.3s71.9 4.3 71.9 4.3c4.9 0 9-4 9-9v-4.1c-.1-4.5-3.6-8.3-8.1-8.8zm158.7-176.6c-31 .4-59.7 9.9-83.4 28.3l4.5-83.5.5-8.5s27.4 2.2 77.1 2.2c20.1 0 36.5-.4 48.9-.8 10.6-.3 19.5-.3 28.3-1.3h1c3.9 0 7.2-2.7 8-6.5l11.2-51.3c1.1-5.1-2.8-10-8-10h-6.2c-2.3 0-4.5 1-6 2.6-3.2 3.5-8.2 6.4-14.4 8.4-.1 0-.3.1-.2.1-3.7.9-7 1.5-9.4 1.8-.4.1-.8.1-1.1.1-3.7.4-8.6.7-14.7 1.1-9.9.5-23.2.9-40.6.9-50.2 0-90.4-3.1-90.4-3.1l-.5 8.4-6.8 112-2.6 42 5.8 2.5 6.1 2.6 8.8 3.8c1.7-1.8 3.5-3.5 5.3-5.2l.9-.9c.8-.7 1.7-1.5 2.5-2.2.1-.1.3-.2.4-.3l3-2.4c.3-.2.6-.4.9-.7.7-.5 1.5-1.1 2.2-1.6.4-.3.8-.5 1.2-.8.7-.5 1.4-.9 2.1-1.4.4-.2.8-.5 1.2-.7.7-.5 1.5-.9 2.3-1.3.4-.2.7-.4 1.1-.6 1.1-.6 2.2-1.2 3.4-1.8 52.5-26 94.6-3.6 103.6 49.3 13 75.4-26.5 113.9-86.6 105.9-1-.1-2-.3-3-.5-.3 0-.5-.1-.8-.1l-2.7-.6c-.1 0-.2 0-.3-.1-1-.2-1.9-.5-2.9-.7-.2-.1-.5-.1-.7-.2-.8-.2-1.7-.5-2.5-.7-.2 0-.3-.1-.5-.1-.9-.3-1.9-.6-2.8-1-.2-.1-.5-.2-.7-.3-.5-.2-.9-.4-1.4-.5-4.2-1.9-6.2-6.2-4.8-11.4.1-.2 3.8-13.5 4.5-17.7 2.5-14.4.3-37.7-7.6-50.1-12.7-20.1-39-20.5-51.1-6-15.3 18.8-8.3 66.5 19 89.1 20.2 16.7 64.8 25.8 113.2 17.7 48.4-7.6 81.6-34.5 93.3-71.8 22-68.8-26-132.5-107.6-132.1zM372.4 454c2.7-5.2 7.9-11.3 12.4-16.1 3.1-3.3 1.3-8.8-3.1-9.6l-5-.9c-3.2-.6-6.5.6-8.5 3.2-8.7 11.2-9.7 18.4-7.9 22.9 2 5.2 9.4 5.5 12.1.5zM146.5 662.6c-3-1.2-5.9-2.9-8.8-5.5-6.2-6-11.7-16.4-15.7-31.9-.3-1.5-.7-3.1-1-4.7-.2-1-.4-1.8-.7-2.4-13-63.9 16-142.1 22.3-152.4 1-1.7 1-3.8 0-5.4-3.3-5.5-7.8-7.5-7.8-7.5-1.9-.9-4.2-1.5-6.4.1-13.2 8.8-36.9 44.2-61.2 106.1-2.6 6.3-5.1 11.9-7.6 17.2-40.2 9.2-46.5-13.4-46.5-13.4-13.8 31 8 38.1 37 31.5-23.7 41.2-48.2 54.6-48.2 54.6s26.4 15.9 62.4-57.6c.1-.7 20.9-10 26.5-13.3 2.9-1.7 5.6-3.1 8.1-4.5-1.7 14.7-2.1 32.2 2.8 53.5 0 0 .2.7.4 1.9 1.8 7.3 4.2 15.1 7.4 23.4.7 1.9 1.5 3.9 2.3 5.8.2.5.4.9.6 1.2 27 48.7 70.7 18.7 62.3.5.3-.1-14 8.4-28.2 2.8zm-61.4-94.7c-1.9.7-12.7 4.5-14.4 5.1 17.1-53.4 36-77.6 48-91.1-7.7 21.9-14.1 51.6-17.9 79.1-4.9 2.4-10.2 4.5-15.7 6.9zm485.4-110.1c-4.6 6-9.1 18.1-9 19.1.4 5.1 6.4 9.2 10.7 11.5 1.6-6.5 6.9-16.9 15.7-30.3 6.4-9.8-11.9-8.8-11.9-8.8s-12.6 1.1-26 9.9c1.4-2.4 2.8-4.9 4.4-7.5 0 0 .5-5.2-19.2-3.2 0 0-23.3 38.9-29.1 74.2-6.9 11.8-29.1 46.5-46.4 43.1-9.7-1.8-12.5-34.2.9-61 4.1 5.1 14.7 14 23.7 13.7 17.5-.4 29.2-40.3 26.8-49.3-1.1-3.6-2.7-6.1-4.2-7.7-2.4-2.7-5.9-6.1-17.9-7-3.4-.3-6.5 1.2-9.6 2.6-20.3 9-32.8 39.2-33.5 40.7-.3.3-4.8 13.9-5.3 15.7 0 .5-3.7 12.2-2.8 24.8 3.5 50.1 41.4 40.9 67-4.6-.5 10.7 1.1 20.7 6.2 28.5 0 0 5.6 4.2 10.9 2.8v-.1c-.9-43 4.7-62.6 16-84.5 8.7-9.8 21.8-18.9 32.6-22.6zm-75.2 7.3c-3.2 12.8-8.2 44.8-19 42.8-5.3-1-10.6-7.2-12.1-9 6.1-11.1 20.7-25.7 31.1-33.8zM642 447.6s-6.3-13-17.7-9.8c-9.3 2.5-30 12.7-32.5 38.7-.3 6.9.6 16.5 1.5 20.6 11.3 51.5-24.8 57.5-38.4 39.1-1 1.2-1.7 2.4-1.7 2.4 1.8 2.5 6.4 7.7 9.1 10.1 4.4 4.6 17.1 14.5 37.2 3.8 7.5-4.2 13.2-10.8 15.2-15.5 16.5-31.2-33.1-59 27.3-89.4zm148.6-10.5c-.6 1.9-2.2 8.1-2.3 11.6-.1.4-.8 17.1 3.1 20.8.4.4 6-7.4 5.9-8.6-.2-3.1 2.2-12 2.3-12.4 1.5-4.5 3.7-9.1 5.9-13.1 1.3-2.1 3-4.3 5-7.1 6.6-9.1-3-9.5-8-9.5-1.4 0-2.8.3-4.1.9-5.5 2.4-22.1 10.4-37.9 25.7 2.8-5.7 6-11.6 9.5-17.8 0 0 .5-5.2-19.2-3.2 0 0-27.8 46.4-30.2 83.8-6.2 11.6-15.3 26.5-21.8 27.6-11.7 2 .4-36.4 11.1-64.8 10.5-28.4 16.5-36.8 16.5-36.8s-1.2-2.5-11.1-4.1c-7-1.2-9.6-.9-9.6-.9s-1.6 3.5-4.6 10c-3.1-2.1-21.9-13.5-35.8-1.1-8.4 7.8-28 37.6-34.1 66.7-6.2 29.8.8 41.4 13 46 0 0 15.2 5.4 32.8-35.1-.6 10.5 1.4 22.4 13 28.7 10.5 5.5 22.5-9.6 30.9-23.4.8 6.3 2.6 12.1 5.9 17 4.1 3 9.9.1 9.9-5 0-7.4 0-16.9.6-19.1 1.1-7 3.9-20.9 10.7-39.4 9.5-15.5 26.2-34.3 42.6-37.4zM681.4 495c-7.1 14.1-27 51.8-33.8 50.3-8.4-1.9 13.8-80.8 32.6-94.3 9.9-6.9 14.9-7 18.6-6.3-4.7 11.4-11.2 28.5-17.4 50.3zm176.5 35.3c10.6-40.2 19.3-91 40.6-116.2 0 0-4.7-4.8-20.7-5 0 0-10.6 18.2-17.9 39.7-3.9 11.1-6.9 21.6-9.8 31.4v-.2s-18.2 39.3-28.6 41.3c-12 2 .4-36.4 10.9-64.8 10.8-28.5 16.7-37.1 16.7-37.1s-1.4-2.3-11.1-3.9c-7-1.2-9.6-.9-9.6-.9s-19.8 34.7-26.3 71.8c-1.7 9.7-7.5 33.6 10.6 43.3 10.4 5.5 22.6-9.6 30.8-23.4-2.7 11.2-5.2 21.2-7.9 30.1-23.4 7.4-36 14.2-42.6 19.8 0 0-13 8.2-5.9 19.3h-.1s.2.2.5.6c2.1 3 5.5 6.2 11.1 9.5 9.4 5.8 23.6 9.2 38.3-6.1 6.9-7.4 12.4-20.2 17.1-35.6 10.5-1.6 21.7-2.4 33.6-2.4 45.6-.2 46.6 26.2 46.6 26.2 21.8-6.1 10.3-59.5-76.3-37.4zm-59.2 44.9c-.4 0-3.5 0-6.1-.8-3.1-1-6.8-4.1-1.7-8.6 6.5-5.6 20.8-12.5 40.5-17.5-6.6 15.1-15.7 24.7-32.7 26.9z" />
			<path d="M463.4 454.4c1.4-1.2.8-3.4-1-3.8-20.3-4.1-36.4 43.9-36.5 43.9-2.3 5.3-4.5 10.3-4.8 10.8L395 567.8c-16.9-33.8 12.1-85.2 9.7-90.7-3-7-18.5-6.8-18.5-6.8-13.4 31.1-17.7 51.4-16.1 68.8-5.1 10.3-18.2 35.2-26.5 36.7-11.9 2.2.4-36.1 10.9-64.6 10.8-28.5 16.7-37.1 16.7-37.1s-1.4-2.5-11.1-4.1c-7-1-9.6-.7-9.6-.7s-17.4 26.8-26.3 71.6c-5.6 9.4-22.3 38.6-27.2 39.4-11.9 2.2.4-36.1 10.9-64.6 10.5-28.6 16.4-37.1 16.4-37.1s-1.2-2.5-11.1-4.1c-1.5-.2-2.8-.4-3.9-.5-3.5-.4-7.1.4-10.1 2.2-8.2 5-25.8 16.9-41.2 34.7 4.1-9.4 9.2-19 15.5-28.4 0 0 .3-5.1-19.4-3.1 0 0-29.1 48.4-30.2 86.2-6.1 10.1-16.5 27.1-22.8 28.1-12 1.8.4-36.1 10.9-64.6 10.5-28.6 16.4-37.1 16.4-37.1s-1.2-2.5-11.1-4.1c-7-1-9.4-.9-9.4-.9s-16 6.3-31 19.6c2.2-3.7 4.5-7.3 7.1-10.7 0 0 .3-5.1-19.4-3.1 0 0-13.1 21.7-22 47.4-.2-.2-14.9 44.8-1.9 65.8 0 0 4.5 3.4 9.3 3-.3-4.1 2.3-43.9 16.4-80.1.1-.1.2-.2.3-.4 6.8-11.1 19.6-21.7 34.3-26.3-5.2 12.6-12.4 32-19.3 56.6-2.7 9.8-7.5 33.8 10.6 43.3 8.6 4.7 22.6-9.2 32.1-27.4l.8 6.1c1 4.2 2.6 8.2 4.9 11.7 0 0 6.7 5.6 12.3-2.4-1-3.4-1.5-24.8 5.9-52.2 9.2-17.6 26.4-34.6 48.3-49.1-5.2 12.6-12.4 32-19.3 56.6-2.7 9.8-7.5 33.8 10.6 43.3 9.1 5 19.6-6.2 27.6-18.3 3.3-5 5.5-9.3 7-13 .6 14.9 6.4 25 12 26.9 14.2 4.8 29.4-19.8 36.9-34.2 5.9 28.8 28.7 34.3 30.9 27.1 4-13.2 23.3-65.3 29.2-77.7 4.1-9.2 5.8-11.6 7.8-15.8 10.1-16.4 19.5-25.5 24.1-29.3z" />
		</g>
	</g>
</svg>