<svg width="1260" height="920.0000000000001" xmlns="http://www.w3.org/2000/svg">
	<defs>
		<clipPath id="a">
			<path d="m0,2000l2000,0l0,-2000l-2000,0l0,2000z" />
		</clipPath>
	</defs>
	<g>
		<rect fill="none" id="canvas_background" height="922" width="1262" y="-1" x="-1" />
	</g>
	<g>
		<g transform="matrix(1.33333,0,0,-1.33333,0,2666.667) " clip-path="url(#a)">
			<path fill="#00759b" d="m68.043001,1790.935188c0,-70.736 41.104,-131.874 100.723,-160.836l-85.248,233.567c-9.916,-22.225 -15.475,-46.82 -15.475,-72.73m299.353,9.012c0,22.094 -7.937,37.385 -14.734,49.287c-9.057,14.728 -17.555,27.188 -17.555,41.916c0,16.424 12.456,31.717 30.01,31.717c0.794,0 1.546,-0.096 2.316,-0.144c-31.794,29.132 -74.156,46.921 -120.68,46.921c-62.437,0 -117.362,-32.037 -149.318,-80.55c4.197,-0.134 8.149,-0.216 11.502,-0.216c18.688,0 47.63,2.272 47.63,2.272c9.629,0.564 10.767,-13.589 1.143,-14.728c0,0 -9.685,-1.133 -20.452,-1.699l65.076,-193.58l39.114,117.292l-27.842,76.288c-9.628,0.566 -18.744,1.7 -18.744,1.7c-9.633,0.568 -8.503,15.291 1.134,14.727c0,0 29.507,-2.272 47.067,-2.272c18.686,0 47.632,2.272 47.632,2.272c9.634,0.564 10.77,-13.589 1.14,-14.728c0,0 -9.695,-1.133 -20.452,-1.699l64.585,-192.106l17.83,59.557c7.715,24.73 13.598,42.48 13.598,57.773" />
			<path fill="#00759b" d="m249.890001,1775.302188l-53.625,-155.809a178.628,178.628 0 0 1 50.488,-7.28c20.811,0 40.771,3.591 59.346,10.13a16.618,16.618 0 0 0 -1.28,2.462l-54.929,150.497zm153.683,101.369c0.769,-5.692 1.202,-11.798 1.202,-18.377c0,-18.127 -3.396,-38.514 -13.59,-64.01l-54.584,-157.82c53.13,30.979 88.86,88.54 88.86,154.472c0,31.07 -7.938,60.28 -21.888,85.735" />
			<path fill="#00759b" d="m246.753001,1592.155188c-109.602,0 -198.771,89.175 -198.771,198.78c0,109.6 89.169,198.766 198.77,198.766c109.6,0 198.774,-89.165 198.774,-198.765c0,-109.606 -89.173,-198.78 -198.773,-198.78m0,407.098c-114.873,0 -208.324,-93.45 -208.324,-208.319c0,-114.878 93.45,-208.332 208.324,-208.332c114.87,0 208.329,93.454 208.329,208.332c0,114.87 -93.458,208.32 -208.33,208.32m392.741,-346.96l-0.001,0l-33.36,3.64l-0.001,0l-7.991,0.871l0,285.747c0,5.596 -5.072,9.824 -10.577,8.815l-99.597,-18.246l-0.001,0a8.962,8.962 0 0 1 -7.347,-8.816l0,-4.295c0,-4.902 3.975,-8.87 8.877,-8.87l0.094,0c36.782,-0.897 43.959,-8.97 43.959,-41.717l0,-212.618l-7.973,-0.887l-16.25,-1.805l-16.25,-1.805a8.963,8.963 0 0 1 -7.972,-8.908l0,-4.098a8.962,8.962 0 0 1 8.962,-8.963s24.466,4.27 72.549,4.27c48.084,0 71.906,-4.27 71.906,-4.27a8.963,8.963 0 0 1 8.963,8.963l0,4.082a8.963,8.963 0 0 1 -7.99,8.91m158.693,176.56c-30.952,-0.45 -59.66,-9.87 -83.433,-28.26l4.479,83.474l0.454,8.483s27.426,-2.22 77.073,-2.22c20.095,0 36.492,0.364 48.898,0.796c10.595,0.322 19.529,0.294 28.3,1.264l1.028,0a8.21,8.21 0 0 1 8.02,6.457l11.206,51.272c1.119,5.12 -2.78,9.963 -8.02,9.963l-6.217,0a8.214,8.214 0 0 1 -6.02,-2.636c-3.246,-3.497 -8.193,-6.362 -14.397,-8.35c-0.055,-0.018 -0.337,-0.108 -0.166,-0.054a95.393,95.393 0 0 0 -9.431,-1.804c-0.4,-0.054 -0.776,-0.102 -1.115,-0.143c-3.718,-0.356 -8.57,-0.733 -14.743,-1.061c-9.881,-0.527 -23.155,-0.931 -40.646,-0.931c-50.193,0 -90.366,3.068 -90.366,3.068l-0.511,-8.418l0,-0.001l-6.807,-111.991l-2.55,-41.97l5.752,-2.501l6.076,-2.642l8.806,-3.828a96.9,96.9 0 0 0 5.299,5.177c0.315,0.287 0.627,0.577 0.946,0.859c0.834,0.738 1.682,1.46 2.54,2.168c0.129,0.106 0.254,0.218 0.384,0.324c0.99,0.808 1.998,1.592 3.018,2.359c0.304,0.228 0.615,0.445 0.92,0.669a91.961,91.961 0 0 0 2.206,1.574c0.38,0.263 0.766,0.519 1.15,0.776a99.3,99.3 0 0 0 3.294,2.106c0.75,0.455 1.507,0.897 2.267,1.332c0.354,0.2 0.704,0.409 1.06,0.606a91.582,91.582 0 0 0 3.38,1.787c52.482,26.016 94.647,3.588 103.619,-49.342c13.009,-75.36 -26.465,-113.935 -86.573,-105.861c-0.996,0.149 -1.986,0.32 -2.971,0.505c-0.257,0.048 -0.514,0.098 -0.77,0.147c-0.895,0.175 -1.79,0.363 -2.678,0.567l-0.29,0.064a82.687,82.687 0 0 0 -6.117,1.695c-0.154,0.049 -0.31,0.094 -0.464,0.145c-0.95,0.31 -1.895,0.642 -2.84,0.99c-0.234,0.086 -0.468,0.177 -0.701,0.266c-0.461,0.175 -0.92,0.365 -1.38,0.549c-4.178,1.868 -6.192,6.165 -4.752,11.437c0.052,0.19 3.757,13.476 4.494,17.706c2.513,14.426 0.295,37.714 -7.572,50.142c-12.7,20.06 -38.952,20.52 -51.062,5.987c-15.252,-18.84 -8.336,-66.468 19.027,-89.075c20.185,-16.687 64.804,-25.797 113.249,-17.722c48.445,7.625 81.639,34.539 93.302,71.77c21.979,69.079 -26.017,132.774 -107.655,132.326" />
			<path fill="#454342" d="m371.087001,1547.132188c2.685,5.174 7.934,11.331 12.375,16.069c3.114,3.323 1.333,8.769 -3.143,9.601l-4.962,0.923c-3.22,0.598 -6.531,-0.618 -8.532,-3.211c-8.682,-11.247 -9.695,-18.372 -7.914,-22.859c2.104,-5.3 9.55,-5.585 12.176,-0.523m-287.251,-113.955c-1.919,-0.657 -12.693,-4.477 -14.395,-5.11c17.074,53.45 36.004,77.577 47.958,91.052c-7.734,-21.91 -14.147,-51.647 -17.938,-79.096c-4.835,-2.315 -10.133,-4.458 -15.625,-6.846m61.375,-94.722c-2.973,1.156 -5.944,2.917 -8.785,5.497c-6.2,5.997 -11.679,16.41 -15.678,31.932c-0.337,1.522 -0.66,3.085 -0.959,4.72c-0.182,0.998 -0.414,1.792 -0.684,2.44c-13.01,63.924 15.98,142.133 22.262,152.446a5.212,5.212 0 0 1 0.006,5.418c-3.348,5.504 -7.764,7.496 -7.764,7.496c-1.872,0.897 -4.158,1.527 -6.417,-0.055c-13.19,-8.788 -36.908,-44.231 -61.207,-106.097a469.001,469.001 0 0 0 -7.593,-17.242c-40.175,-9.155 -46.468,13.398 -46.468,13.398c-13.803,-31.007 8.034,-38.085 36.98,-31.518c-23.735,-41.203 -48.154,-54.572 -48.154,-54.572s26.377,-15.933 62.381,57.56c0.144,0.682 20.864,10.027 26.476,13.314c2.916,1.656 5.638,3.068 8.14,4.456c-1.712,-14.692 -2.078,-32.246 2.811,-53.495l0.002,-0.012c0.002,-0.014 0.153,-0.688 0.45,-1.88c1.78,-7.348 4.191,-15.131 7.387,-23.384a174.471,174.471 0 0 1 2.35,-5.822l0,-0.001c0.222,-0.528 0.435,-0.902 0.644,-1.162c27.044,-48.721 70.72,-18.75 62.287,-0.518c0,0 -14.238,-8.45 -28.467,-2.92m348.803,197.51c-3.222,-12.766 -8.209,-44.755 -18.958,-42.798c-5.271,0.959 -10.608,7.18 -12.142,9.001c6.068,11.091 20.703,25.765 31.1,33.797m75.193,7.359c-4.632,-5.996 -9.08,-18.071 -8.994,-19.079c0.433,-5.083 6.419,-9.196 10.745,-11.514c1.615,6.487 6.909,16.912 15.689,30.338c6.423,9.82 -11.867,8.849 -11.867,8.849s-12.569,-1.088 -25.99,-9.908c1.401,2.414 2.85,4.915 4.351,7.53c0,0 0.529,5.154 -19.184,3.166c0,0 -23.317,-38.852 -29.087,-74.167c-6.94,-11.755 -29.05,-46.452 -46.387,-43.05c-9.726,1.788 -12.509,34.203 0.884,60.955c4.113,-5.076 14.677,-14.023 23.721,-13.674c17.453,0.406 29.157,40.26 26.815,49.301c-1.074,3.646 -2.68,6.123 -4.189,7.726c-2.448,2.659 -5.933,6.054 -17.935,6.971c-3.393,0.259 -6.465,-1.178 -9.576,-2.559c-20.344,-9.031 -32.842,-39.189 -33.502,-40.701c-0.287,-0.252 -4.803,-13.857 -5.253,-15.727c-0.002,-0.518 -3.674,-12.191 -2.791,-24.796c3.507,-50.054 41.372,-40.919 67.025,4.568c-0.51,-10.74 1.143,-20.689 6.244,-28.517c0,0 5.57,-4.249 10.942,-2.76l0.033,0.139c-0.864,43.03 4.658,62.609 16.035,84.493c8.388,9.617 21.469,18.679 32.271,22.416m71.513,10.208s-6.333,13.022 -17.707,9.755c-9.267,-2.48 -29.964,-12.684 -32.5,-38.718c-0.29,-6.852 0.606,-16.542 1.49,-20.578c11.304,-51.454 -24.79,-57.492 -38.373,-39.079c-0.97,-1.217 -1.723,-2.408 -1.723,-2.408c1.826,-2.453 6.4,-7.7 9.101,-10.056c4.392,-4.615 17.072,-14.459 37.158,-3.81c7.493,4.154 13.196,10.824 15.226,15.463c16.528,31.221 -33.052,58.961 27.328,89.43m39.417,-47.429c-7.06,-14.081 -26.982,-51.756 -33.79,-50.303c-8.413,1.937 13.755,80.842 32.63,94.255c9.863,6.864 14.943,6.99 18.566,6.289c-4.704,-11.382 -11.203,-28.501 -17.406,-50.24m109.188,57.9c-0.625,-1.858 -2.18,-8.073 -2.298,-11.62c-0.103,-0.435 -0.818,-17.074 3.115,-20.813c0.42,-0.4 5.95,7.352 5.876,8.593c-0.187,3.114 2.195,11.986 2.31,12.39c1.538,4.479 3.667,9.089 5.9,13.054c1.346,2.069 2.97,4.335 4.993,7.119c6.582,9.05 -2.99,9.544 -8.036,9.475a10.56,10.56 0 0 1 -4.077,-0.878c-5.499,-2.395 -22.078,-10.392 -37.85,-25.681a329.32,329.32 0 0 0 9.487,17.76s0.53,5.155 -19.183,3.167c0,0 -27.827,-46.371 -30.2,-83.841c-6.198,-11.591 -15.328,-26.517 -21.78,-27.644c-11.74,-1.98 0.355,36.37 11.12,64.82c10.548,28.428 16.472,36.845 16.472,36.845s-1.17,2.528 -11.09,4.075c-7.002,1.209 -9.627,0.914 -9.627,0.914s-1.6,-3.501 -4.633,-10.045c-3.114,2.088 -21.892,13.495 -35.785,1.085c-8.4,-7.797 -28.04,-37.577 -34.068,-66.695c-6.165,-29.79 0.812,-41.393 13.026,-45.975c0,0 15.223,-5.383 32.833,35.134c-0.598,-10.48 1.408,-22.437 12.96,-28.674c10.466,-5.48 22.543,9.618 30.878,23.35c0.797,-6.294 2.643,-12.08 5.863,-17.02l0.025,-0.018c4.09,-3.036 9.893,-0.056 9.865,5.036c-0.039,7.425 -0.04,16.882 0.58,19.129c1.077,6.995 3.854,20.852 10.654,39.386c9.535,15.707 26.24,34.466 42.67,37.573m8.086,-138.152c-0.425,-0.01 -3.52,-0.046 -6.105,0.777c-3.149,1.002 -6.83,4.053 -1.744,8.632c6.51,5.55 20.814,12.47 40.537,17.462c-6.565,-15.036 -15.725,-24.588 -32.688,-26.871m59.24,44.909c10.56,40.169 19.263,90.986 40.583,116.19c0,0 -4.745,4.785 -20.716,4.988c0,0 -10.583,-18.243 -17.928,-39.666c-3.853,-11.066 -6.882,-21.594 -9.766,-31.442l-0.024,0.219s-18.195,-39.254 -28.597,-41.304c-11.96,-2.005 0.354,36.367 10.9,64.795c10.768,28.452 16.666,37.087 16.666,37.087s-1.363,2.285 -11.064,3.855c-7.002,1.209 -9.627,0.915 -9.627,0.915s-19.764,-34.66 -26.284,-71.836c-1.71,-9.744 -7.528,-33.626 10.617,-43.333c10.36,-5.484 22.622,9.624 30.825,23.39c-2.735,-11.161 -5.156,-21.178 -7.92,-30.126c-23.366,-7.39 -35.95,-14.194 -42.593,-19.77c0,0 -12.975,-8.157 -5.872,-19.346c-0.03,0.002 -0.06,0.002 -0.092,0.003c0,0 0.162,-0.207 0.468,-0.567c2.056,-2.981 5.55,-6.166 11.092,-9.463c9.438,-5.77 23.573,-9.197 38.278,6.092c6.921,7.42 12.354,20.213 17.055,35.58c10.451,1.614 21.657,2.428 33.618,2.439c45.605,0.238 46.577,-26.234 46.577,-26.234c21.897,6.22 10.373,59.64 -76.197,37.534" />
			<path fill="#454342" d="m462.127001,1546.702188c1.404,1.162 0.835,3.422 -0.95,3.785c-20.276,4.128 -36.45,-43.909 -36.45,-43.91c-2.273,-5.27 -4.466,-10.327 -4.828,-10.807l-26.052,-62.459c-16.855,33.775 12.051,85.19 9.662,90.68c-2.997,6.974 -18.482,6.79 -18.482,6.79c-13.427,-31.077 -17.677,-51.432 -16.053,-68.77c-5.103,-10.303 -18.228,-35.219 -26.487,-36.67c-11.934,-2.224 0.378,36.148 10.927,64.577c10.765,28.451 16.665,37.087 16.665,37.087s-1.389,2.503 -11.09,4.073c-6.977,0.991 -9.602,0.696 -9.602,0.696s-17.354,-26.76 -26.309,-71.617c-5.609,-9.356 -22.323,-38.568 -27.186,-39.424c-11.934,-2.223 0.38,36.15 10.926,64.577c10.523,28.647 16.447,37.064 16.447,37.064s-1.169,2.526 -11.089,4.073c-1.5,0.212 -2.79,0.377 -3.89,0.505a15.805,15.805 0 0 1 -10.076,-2.222c-8.159,-4.996 -25.844,-16.923 -41.18,-34.695c4.095,9.366 9.185,18.961 15.504,28.425c0,0 0.311,5.13 -19.402,3.141c0,0 -29.137,-48.446 -30.177,-86.242c-6.094,-10.114 -16.456,-27.095 -22.765,-28.066c-11.998,-1.846 0.38,36.148 10.927,64.576c10.523,28.646 16.446,37.063 16.446,37.063s-1.169,2.528 -11.088,4.074c-6.978,0.99 -9.409,0.938 -9.409,0.938s-16.01,-6.263 -30.997,-19.646c2.186,3.745 4.537,7.34 7.074,10.72c0,0 0.311,5.13 -19.402,3.143c0,0 -13.058,-21.71 -22.005,-47.402c-0.22,0.152 -14.89,-44.758 -1.856,-65.807c0,0 4.468,-3.394 9.258,-3.038c-0.328,4.106 2.337,43.897 16.367,80.142c0.124,0.1 0.237,0.227 0.331,0.382c6.756,11.094 19.612,21.7 34.253,26.288c-5.224,-12.568 -12.443,-32.016 -19.306,-56.617c-2.665,-9.823 -7.504,-33.845 10.615,-43.333c8.572,-4.654 22.55,9.166 32.138,27.442l0.84,-6.144c1.021,-4.234 2.608,-8.17 4.896,-11.68c0,0 6.656,-5.568 12.321,2.44c-1.024,3.412 -1.523,24.773 5.932,52.19c9.21,17.63 26.352,34.602 48.265,49.143c-5.224,-12.569 -12.443,-32.016 -19.306,-56.617c-2.665,-9.823 -7.503,-33.845 10.616,-43.333c9.138,-4.96 19.58,6.171 27.623,18.277c3.341,4.98 5.546,9.275 6.956,12.98c0.59,-14.89 6.37,-24.975 12.04,-26.87c14.242,-4.759 29.407,19.775 36.89,34.157c5.856,-28.792 28.701,-34.262 30.866,-27.149c4.018,13.205 23.251,65.328 29.236,77.738c4.07,9.25 5.78,11.621 7.794,15.784c9.603,16.68 18.97,25.715 23.622,29.568" />
		</g>
	</g>
</svg>
