<?xml version="1.0" encoding="utf-8"?>
<!-- Generator: Adobe Illustrator 21.1.0, SVG Export Plug-In . SVG Version: 6.00 Build 0)  -->
<svg version="1.1" id="Layer_1" xmlns="http://www.w3.org/2000/svg" xmlns:xlink="http://www.w3.org/1999/xlink" x="0px" y="0px"
	 width="1258.2px" height="200px" viewBox="0 0 1258.2 200" style="enable-background:new 0 0 1258.2 200;" xml:space="preserve">
<style type="text/css">
	.st0{clip-path:url(#SVGID_2_);}
	.st1{fill:#D7DADE;}
</style>
<title>wporg-logo</title>
<g>
	<g>
		<defs>
			<rect id="SVGID_1_" x="-101" y="-100" width="1460" height="400"/>
		</defs>
		<clipPath id="SVGID_2_">
			<use xlink:href="#SVGID_1_"  style="overflow:visible;"/>
		</clipPath>
		<g class="st0">
			<g>
				<g>
					<g>
						<path class="st1" d="M100,6c18.8,0,37.1,5.6,52.6,16.1c15.1,10.2,27,24.6,34.1,41.4c12.4,29.3,9.1,62.8-8.7,89.1
							c-10.2,15.1-24.6,27-41.4,34.1c-29.3,12.4-62.8,9.1-89.1-8.7c-15.1-10.2-27-24.6-34.1-41.4C1,107.3,4.3,73.8,22.1,47.5
							c10.2-15.1,24.6-27,41.4-34.1C75,8.5,87.5,6,100,6 M100,0C44.8,0,0,44.8,0,100s44.8,100,100,100s100-44.8,100-100
							S155.2,0,100,0"/>
						<path class="st1" d="M16.7,100c0,31.9,18.2,61.1,47,75L23.9,66.1C19.1,76.8,16.7,88.3,16.7,100 M156.3,95.8
							c0-10.3-3.7-17.4-6.9-23s-8.2-12.7-8.2-19.5s5.8-14.8,14-14.8h1.1C122.4,7.4,69.7,9.7,38.6,43.7c-3,3.3-5.8,6.8-8.2,10.5h5.4
							c8.7,0,22.2-1.1,22.2-1.1c4.5-0.3,5,6.3,0.5,6.9c0,0-4.5,0.5-9.5,0.8l30.3,90.3l18.2-54.7l-13-35.6C80,60.5,75.8,60,75.8,60
							c-4.5-0.3-4-7.1,0.5-6.9c0,0,13.8,1.1,21.9,1.1s22.2-1.1,22.2-1.1c4.5-0.3,5,6.3,0.5,6.9c0,0-4.5,0.5-9.5,0.8l30.1,89.6
							l8.6-27.2c3.8-11.9,6.1-20.3,6.1-27.5 M101.4,107.2l-25,72.7c16.8,4.9,34.7,4.5,51.2-1.3l-0.6-1.1L101.4,107.2z M173.1,60
							c0.4,2.8,0.6,5.7,0.6,8.6c0,8.5-1.6,18-6.3,29.8L141.9,172C180.9,149.3,194.8,99.6,173.1,60"/>
						<path class="st1" d="M557.5,74.2h-39.7v4.2c12.4,0,14.4,2.7,14.4,18.4v28.4c0,15.8-2,18.7-14.4,18.7
							c-9.6-1.3-16-6.4-24.9-16.2l-10.2-11.1c13.8-2.4,21.1-11.1,21.1-20.9c0-12.2-10.4-21.6-30-21.6h-39.1v4.2
							c12.4,0,14.4,2.7,14.4,18.4v28.4c0,15.8-2,18.7-14.4,18.7v4.2h44.2v-4c-12.4,0-14.4-2.9-14.4-18.7v-8h3.8l24.7,30.9h64.7
							c31.8,0,45.6-16.9,45.6-37.1s-13.8-36.9-45.6-36.9 M464.6,110.4V80.9h9.1c10,0,14.4,6.9,14.4,14.9s-4.4,14.7-14.4,14.7
							L464.6,110.4z M558.4,141.3h-1.6c-8,0-9.1-2-9.1-12.2V80.9h10.7c23.1,0,27.3,16.9,27.3,30S581.5,141.3,558.4,141.3"/>
						<path class="st1" d="M310.9,118.7l15.3-45.3c4.4-13.1,2.4-16.9-11.8-16.9V52h41.8v4.4c-14,0-17.3,3.3-22.9,19.6L308,152h-2.9
							l-22.7-69.6L259.3,152h-2.9l-24.7-76c-5.3-16.2-8.9-19.6-21.8-19.6V52h49.3v4.4c-13.1,0-16.7,3.1-12,16.9l14.9,45.3L284.7,52
							h4.2L310.9,118.7z"/>
						<path class="st1" d="M386.4,151.1c-24.4,0-44.4-18-44.4-40s20-39.8,44.4-39.8s44.4,18,44.4,39.8S410.8,151.1,386.4,151.1
							 M386.4,78.2c-20.4,0-27.6,18.4-27.6,32.9S366,144,386.4,144s27.8-18.2,27.8-32.9S407.1,78.2,386.4,78.2"/>
						<path class="st1" d="M658,143.8v4.4h-50.9v-4.4c14.9,0,17.6-3.8,17.6-26V82.2c0-22.2-2.7-25.8-17.6-25.8V52h46
							c22.9,0,35.6,11.8,35.6,27.6s-12.7,27.3-35.6,27.3h-12.7v10.9C640.4,140,643.1,143.8,658,143.8 M653.1,60h-12.7v38.7h12.7
							c12.4,0,18.2-8.7,18.2-19.1S665.5,60,653.1,60"/>
						<path class="st1" d="M841.3,127.3l-1.1,4c-2,7.3-4.4,10-20.2,10h-3.1c-11.6,0-13.6-2.7-13.6-18.4v-10.2
							c17.3,0,18.7,1.6,18.7,13.1h4.2V92.7H822c0,11.6-1.3,13.1-18.7,13.1V80.9h12.2c15.8,0,18.2,2.7,20.2,10l1.1,4.2h3.6l-1.6-20.9
							h-65.3v4.2c12.4,0,14.4,2.7,14.4,18.4v28.4c0,14.4-1.7,18.1-11.5,18.6c-9.3-1.4-15.7-6.5-24.5-16.1l-10.2-11.1
							c13.8-2.4,21.1-11.1,21.1-20.9c0-12.2-10.4-21.6-30-21.6h-39v4.2c12.4,0,14.4,2.7,14.4,18.4v28.4c0,15.8-2,18.7-14.4,18.7v4.2
							H738v-4c-12.4,0-14.4-2.9-14.4-18.7v-8h3.8l24.6,30.9h91.3l1.3-20.9C844.6,127.3,841.3,127.3,841.3,127.3z M723.5,110.4V80.9
							h9.1c10,0,14.4,6.9,14.4,14.9s-4.4,14.7-14.4,14.7L723.5,110.4z"/>
						<path class="st1" d="M886.4,151.1c-8.9,0-16.7-4.7-20-7.6c-1.9,2.2-3.1,4.8-3.6,7.6h-4.2v-30.7h4.4
							c1.8,14.7,12,23.3,25.1,23.3c7.1,0,12.9-4,12.9-10.7s-5.1-10.2-14.2-14.4l-12.7-6c-8.9-4.2-15.6-11.6-15.6-21.3
							s10-19.8,23.8-19.8c6.3-0.1,12.4,2,17.3,5.8c1.1-0.9,2.2-3.3,2.9-6h4.2v26.2H902c-1.6-10.4-7.3-19.1-19.1-19.1
							c-6.2,0-12,3.6-12,9.1s4.7,8.9,15.3,13.8l12.2,6c10.7,5.1,14.9,13.3,14.9,20c0,14-12.2,23.8-27.1,23.8"/>
						<path class="st1" d="M953.6,151.1c-8.9,0-16.7-4.7-20-7.6c-1.9,2.2-3.1,4.8-3.6,7.6h-4.2v-30.7h4.4
							c1.8,14.7,12,23.3,25.1,23.3c7.1,0,12.9-4,12.9-10.7s-5.1-10.2-14.2-14.4l-12.7-6c-8.9-4.2-15.6-11.6-15.6-21.3
							s10-19.8,23.8-19.8c6.3-0.1,12.4,2,17.3,5.8c1.1-0.9,2.2-3.3,2.9-6h4.2v26.2h-4.7c-1.6-10.4-7.3-19.1-19.1-19.1
							c-6.2,0-12,3.6-12,9.1s4.7,8.9,15.3,13.8l12.2,6c10.7,5.1,14.9,13.3,14.9,20c0,14-12.2,23.8-27.1,23.8"/>
						<path class="st1" d="M1064.2,150.3c-22.6,0-41.1-17.6-41.1-39.1s18.5-39.1,41.1-39.1s41.2,17.6,41.2,39.1
							S1086.9,150.3,1064.2,150.3 M1034.8,111.2c0,15.3,8.1,34.2,29.4,34.2s29.5-18.9,29.5-34.2s-8.1-34.3-29.5-34.3
							S1034.8,95.9,1034.8,111.2"/>
						<path class="st1" d="M1157.1,130c7.3,8.6,15.5,14.8,22.9,15.7v2.6h-20.4l-24.4-32.4h-5.8v15.4c0,12.3,1.5,14.4,11.7,14.4v2.6
							h-33.3v-2.6c10.2,0,11.7-2.1,11.7-14.4V91.1c0-12.3-1.5-14.3-11.7-14.3v-2.6h32.6c17.1,0,26.5,9.4,26.5,20.8s-8,19.2-22,20.7
							L1157.1,130z M1156,95.1c0-8.9-4.9-16.3-15.7-16.3h-10.9v32.6h10.9C1151,111.4,1156,104.1,1156,95.1"/>
						<path class="st1" d="M1225.9,120.1v-2.5h32.3v2.5c-10.2,0-11.7,2.1-11.7,14.4v9.4c-13.7,0-19.2,6.4-32.1,6.4
							c-20.8,0-37.9-17.6-37.9-39.1s17-39.1,37.9-39.1c8.6,0,16.7,3.8,22.9,10.5c2.1-1.8,3.6-4.3,4.2-7h2.5v27.1h-2.5
							c-3.3-16-13-25.8-26.8-25.8c-19.7,0-26.9,19-26.9,34.3s6.4,33.8,29.2,33.8c10.7,0,20.4-5.8,20.4-16.9
							C1237.4,122.8,1234.3,120.1,1225.9,120.1"/>
						<path class="st1" d="M1004,149.5c-4.4,0-7.9-3.5-7.9-7.9s3.5-7.9,7.9-7.9s7.9,3.5,7.9,7.9S1008.4,149.5,1004,149.5"/>
					</g>
				</g>
			</g>
		</g>
	</g>
</g>
</svg>
